<svg xmlns="http://www.w3.org/2000/svg" xmlns:xlink="http://www.w3.org/1999/xlink" width="300" height="300" viewBox="0 0 400 400">
  <defs>
    <style>
      .cls-1 {
        fill: #fcc10a;
      }

      .cls-2 {
        fill: #f9ecc7;
      }

      .cls-3 {
        fill: #294b9b;
      }

      .cls-4 {
        fill: #6d3b21;
      }

      .cls-5 {
        fill: #6c150e;
      }

      .cls-6 {
        fill: #64a5da;
      }

      .cls-7 {
        fill: #616160;
      }

      .cls-8 {
        fill: #b25058;
      }

      .cls-9 {
        fill: #d79c65;
      }

      .cls-10 {
        fill: #080405;
      }

      .cls-11 {
        fill: #bf7276;
      }

      .cls-12 {
        fill: #f3975b;
      }

      .cls-13 {
        fill: #be2b19;
      }

      .cls-14 {
        fill: #d38083;
      }

      .cls-15 {
        fill: #6b1610;
      }

      .cls-16 {
        fill: #ab2a33;
      }

      .cls-17 {
        fill: #ca6622;
      }

      .cls-18 {
        fill: #f2af97;
      }

      .cls-19 {
        fill: url(#Dégradé_sans_nom_78);
      }

      .cls-20 {
        fill: #774047;
      }

      .cls-21 {
        fill: #3f3b3b;
      }

      .cls-22 {
        fill: #1e0f11;
      }

      .cls-23 {
        fill: url(#Dégradé_sans_nom_78-2);
      }

      .cls-24 {
        fill: #e55f5d;
      }

      .cls-25 {
        fill: #e9570e;
      }

                  #eyebrows {
        animation: eyebrowsmove 4s linear infinite;
      }

          @keyframes eyebrowsmove {
      0% {
          transform: translate(0%, 0%);
      }
      50% {
        transform: translate(0%, -2%);
      }
      100% {
          transform: translate(0%, 0.2%);
      }
    }

      #face_color, #facemain, #facesplit, #eyes, #hair_strands, #spiral_hair, #earsline, #face_pattern, #front_hair {
        animation: MoveUpDown 4s linear infinite;
      }

          @keyframes MoveUpDown {
      0% {
          transform: translate(0%, 0%);
      }
      50% {
        transform: translate(0%, -1%);
      }
      80% {
          transform: translate(0%, 0.2%);
      }
      100% {
          transform: translate(0%, 0%);
      }

    } 

      #clothes_pattern, #clothe_bottom, #shirt {
        animation: ClothesMoveUpDown 5s linear infinite;
      }

          @keyframes ClothesMoveUpDown {
      0% {
          transform: translate(0%, 0%);
      }
      50% {
        transform: translate(0%, 1.2%);
      }
      100% {
          transform: translate(0%, 0%);
      }
    } 


  #face_pattern, #clothes_pattern, #line_pattern_bg, #background_pattern  
   {}

      #clothes_pattern, #line_pattern_bg {
    stroke-dasharray: 8;
    stroke-dashoffset: 0;
    animation: symbolsmove 1s ease-in-out 0s forwards infinite;
    }

@keyframes symbolsmove {
    0% {
        stroke-dashoffset: 10;
        stroke: red;

    }
    50% {
        stroke-dashoffset: 8;
       stroke: 0px;
    }

        100% {
        stroke-dashoffset: 10;
        stroke: red;
        }
     } 

         #mouth, #hair_shadow {
        animation: mouthanimate 4s ease infinite alternate;
        transform-origin: center;

      }

          @keyframes mouthanimate {  
    0% {
        transform: scaleX(1) translate(0%, -0.6%);
    }
    50% {
        transform: scaleX(1.1) translate(0%, -1%);
    }
    100% {
        transform: scaleX(1) translate(0%, 0%);
    }

 }

  #circle_background{
          animation: circle 7s ease infinite alternate;
          transform-origin: center;
 stroke-dasharray: 8;
    stroke-dashoffset: 0;
        }
        
        @keyframes circle{
      0% {
          transform: scale(1);
      }
      30% {
          transform: scale(0.9);;
      }
      40% {
          transform: scale(1);
      }
  }

       #tears_bg {
        animation: 5s tears_fall
        ease-in-out 0s forwards infinite;
            stroke-width:2px;
            stroke-dasharray: 20;
            stroke-dashoffset: 0;
      }
      @keyframes tears_fall {
     0% {
          transform: translate(0%, 0%);
          stroke-dashoffset: 40;
          stroke: #EB775C;
      }
      50% {
        transform: translate(0%, 2%);
        stroke-dashoffset: 10;
        stroke: 0px;
      }
      100% {
          transform: translate(0%, 0%);
          stroke-dashoffset: 40;
         stroke: #EB775C;
      }
    }


    #cheek_stripes
     {
        animation: 5s
        infinite alternate a;

      }
      @keyframes a {
     0% {
          transform: translate(0%, 0%);
          opacity:0.5;
      }
      100% {
          opacity:1;
          transform: translate(0%, -2%)
      }
    }

      #spiral_hair {
    fill-opacity:0;
    stroke-width:2px;
    stroke-dasharray: 20;
    stroke-dashoffset: 0;
    animation: hair_spiral 1s ease-in-out 0s forwards infinite;
    }

@keyframes hair_spiral {
    0% {
        stroke-dashoffset: 20;
        stroke: #1D181D;

    }
    50% {
        stroke-dashoffset: 10;
       stroke: 0px;
    }

          100% {
        stroke-dashoffset: 20;
        stroke: #1D181D;
        }
     } 

      #face_pattern
 {
    fill-opacity:1;
    stroke-width:2px;
    stroke-dasharray: 20;
    stroke-dashoffset: 0;
    animation: face_pattern_animate 1s ease-in-out 0s forwards infinite;
    }

@keyframes face_pattern_animate {
    0% {
        stroke-dashoffset: 20;
        stroke: #D43616;

    }
    50% {
        stroke-dashoffset: 10;
       stroke: 0px;
    }

        100% {
        stroke-dashoffset: 20;
        stroke: #D43616;
        }
     } 
      

    </style>
    <linearGradient id="Dégradé_sans_nom_78" data-name="Dégradé sans nom 78" x1="158.63" y1="191.3" x2="158.63" y2="138.05" gradientUnits="userSpaceOnUse">
      <stop offset="0" stop-color="#fff" stop-opacity="0"/>
      <stop offset="1" stop-color="#fefefe" stop-opacity="0.5"/>
    </linearGradient>
    <linearGradient id="Dégradé_sans_nom_78-2" x1="-3531.15" y1="189.87" x2="-3531.15" y2="136.62" gradientTransform="matrix(-1, 0, 0, 1, -3290.14, 0)" xlink:href="#Dégradé_sans_nom_78"/>
  </defs>
  <g id="background_color" data-name="background color">
    <rect class="cls-1" width="400" height="400"/>
  </g>
  <g id="circle_background" data-name="circle background">
    <circle class="cls-2" cx="200.96" cy="193.68" r="180.75"/>
  </g>
      <g>
      <polyline class="cls-1" points="352.2 35.86 388.8 93.94 352.2 93.94"/>
      <polyline class="cls-1" points="352.2 35.86 315.6 93.94 352.2 93.94"/>
    </g>
  <g id="hair_shadow" data-name="hair shadow">
    <path class="cls-3" d="M342.25,275.82c-33.11,14.88-46.66,26.39-46.66,26.39L278.2,270.72s17.19,41,11.7,40.17C259.82,313.45,232.07,324,232.07,324"/>
    <path class="cls-3" d="M238.92,96.67l20.69,46.08s-34.86-1.12-43.18,1.82c-8.52-21.34-9.92-23.14-9.92-23.14l5.22,23.14s-13.31.36-23.34,3.68l-10,3.32-11.72-18-21-50.73s37.8-14.38,61.92-8.19,54.87,34.67,54.87,34.67,18.91,53.35,25.6,64.26"/>
  </g>
  <g id="hair_behind" data-name="hair behind">
    <path class="cls-4" d="M121.84,79.25l-10,63.62s33.76-11.27,42.53-9.94c3.61-29.16,4.58-31.81,4.58-31.81V131.6s13.06-3.31,23.57-2L193,130.94l7.48-25.85,9.34-69.53s-40-7.34-62.2,7.24-45.89,59-45.89,59-18.89,60.31-17.31,76.35c7.22,73.26-20.37,80.84-42.8,125.81-7.73,45.93,8.57,45.93,8.57,45.93l71.65-41.33s-7.74,56.33-2.58,53.67c29.91-5.3,59.3.1,59.3.1"/>
    <path class="cls-5" d="M282.41,79.25l10,63.62s-33.76-11.27-42.53-9.94c-3.61-29.16-4.58-31.81-4.58-31.81V131.6s-13.06-3.31-23.58-2l-10.51,1.33-7.48-25.85-9.35-69.53a133.15,133.15,0,0,1,15.32-1.64c13.66-.73,33.52.09,46.89,8.88,22.17,14.58,45.89,59,45.89,59s18.89,60.31,17.31,76.35c-7.22,73.26,20.37,80.84,42.79,125.81,7.74,45.93-8.56,45.93-8.56,45.93l-71.65-41.33s7.73,56.33,2.58,53.67c-29.91-5.3-59.3.1-59.3.1"/>
    <path class="cls-3" d="M155.84,122.65l-10,54.8s33.76-9.71,42.53-8.57c3.61-25.11,4.58-27.4,4.58-27.4v26.26S206,164.89,216.49,166L227,167.17l7.47-22.26L243.83,85s-40-6.32-62.21,6.24-45.89,50.8-45.89,50.8-18.88,52-17.3,65.77c7.22,63.11-20.37,69.64-42.8,108.38-7.73,39.56,8.57,39.57,8.57,39.57l71.64-35.61s-7.73,48.52-2.57,46.24c29.9-4.57,59.3.07,59.3.07"/>
    <path class="cls-3" d="M246.2,99.88l8.38,54.8s-28.17-9.71-35.49-8.57c-3-25.11-3.83-27.4-3.83-27.4V145s-10.9-2.85-19.67-1.71l-8.78,1.14-6.24-22.26-7.8-59.9s33.41-6.32,51.92,6.24S263,119.29,263,119.29s15.76,52,14.44,65.76c-6,63.11,17,69.64,35.72,108.38C319.61,333,306,333,306,333l-59.8-35.61s6.46,48.52,2.16,46.24c-25-4.57-49.5.08-49.5.08"/>
  </g>
  <g id="clothe_bottom" data-name="clothe bottom">
    <polygon class="cls-6" points="199.7 293.58 196.97 355.89 199.7 293.58 199.7 293.58"/>
    <polygon class="cls-6" points="140.56 311.05 154.2 290.25 31.37 355.98 16.93 400.33 195.22 400.33 196.97 360.27 199.7 297.96 140.56 311.05"/>
    <polygon class="cls-7" points="386.06 400.71 370.78 354.84 240.77 286.85 255.21 308.36 189.71 294.2 189.7 294.44 189.7 294.44 186.81 358.88 184.94 400.71 386.06 400.71"/>
    <polygon class="cls-7" points="140.56 311.05 154.2 290.25 31.37 355.98 16.93 400.33 195.22 400.33 196.97 360.27 199.7 297.96 140.56 311.05"/>
    <polygon class="cls-6" points="199.7 293.58 196.97 355.89 199.7 293.58 199.7 293.58"/>
  </g>
  <g id="neck">
    <path class="cls-8" d="M150.46,249.37s11.34,30.26,0,41.26l-25.78,22s47.1,45.38,68.42,45.72,11.68,0,11.68,0l-1.46-92.13Z"/>
    <path class="cls-9" d="M252.33,249.37s-11.34,30.26,0,41.26l25.78,22S231,358,209.7,358.35s-11.69,0-11.69,0l1.46-92.13Z"/>
  </g>
  <g id="neck_shadow" data-name="neck shadow">
    <polygon class="cls-10" points="153.64 254.7 155.13 274.77 179.09 298.83 200.51 302.01 204.87 263 153.64 254.7"/>
    <polygon class="cls-10" points="250.94 254.7 248.07 272.54 224.12 296.6 199.5 302.01 198.34 260.76 250.94 254.7"/>
  </g>
  <g id="facemain">
    <path class="cls-11" d="M203.32,60s-84.21-10.24-82.86,89.28a58.74,58.74,0,0,0,.53,7c1.12,8.22,4,29.62,3.69,28.07,5.7,25.68,3.55,13.47,6.22,30.74a56.65,56.65,0,0,0,6.1,18.25l6.75,12.58a56.88,56.88,0,0,0,9.38,12.78c7.56,7.76,20.4,20.26,24.67,20.26H201"/>
  </g>
  <g id="facesplit">
    <path class="cls-12" d="M195.85,60.3s87.91-10.83,84.3,92.82c0,0,1.07-11.76-6,33.71-.41,2.63-.7,5.28-.88,7.93-1.05,15.81-.2,7.7-2.64,18.62A90.45,90.45,0,0,1,262,236.54l-2.65,4.94A91.75,91.75,0,0,1,243,263.28c-7.39,7.29-16.62,15.66-20.11,15.66h-23.2"/>
  </g>
  <g id="face_color" data-name="face color">
    <path class="cls-13" d="M278.69,161.24s30.17-22.83,22.44,21.2c-18.57,35.41-12,39.07-34.73,43.16"/>
    <path class="cls-14" d="M146.66,161.56c-1.55.2-29.1-4.48-7.91,31.09s48.87,12.5,48.87,12.5,8.67,10.09,15,6.45C206,165.49,206,166.78,206,166.78"/>
    <path class="cls-13" d="M121,161.24s-30.17-22.83-22.44,21.2c18.56,35.41,12,39.07,34.73,43.16"/>
    <path class="cls-14" d="M255.22,160.83c1.55.2,29.1-4.49,7.91,31.08s-48.87,12.5-48.87,12.5-8.67,10.1-15,6.46c-3.42-46.11-3.42-44.82-3.42-44.82"/>
  </g>
  <g id="earsline">
    <polyline points="273.54 190.72 273.44 191.3 269.54 213.78 285.53 199.57 273.28 207.22 288.11 176.24"/>
    <polyline points="127.93 191.35 128.03 191.93 131.92 214.41 115.94 200.19 128.18 207.84 113.36 176.86"/>
  </g>
  <g id="mouth">
    <polyline class="cls-10" points="172.75 246.97 199.26 238.2 225.37 246.97"/>
  </g>
  <g id="front_hair" data-name="front hair">
    <polyline class="cls-15" points="196.97 46.53 270.87 61.62 296.22 118.02 259.98 108.4 217.73 82.71 187.96 52.24"/>
    <polyline class="cls-4" points="116.05 84.83 109.09 138.34 143.26 124.71 189.31 93.53 239.62 36.35 228.7 34.24 201.37 34.31 191.91 36.2"/>
  </g>
  <g id="eyebrows">
    <path class="cls-7" d="M216.17,133.37l6.43-7.77s18.34-6,33.17,5.83,12.36,10.37,12.36,10.37-19.77-10.64-30.59-9.9Z"/>
    <path class="cls-7" d="M183.42,133.37,177,125.6s-18.35-6-33.18,5.83-12.36,10.37-12.36,10.37,19.78-10.64,30.59-9.9Z"/>
  </g>
  <g id="hair_strands" data-name="hair strands">
    <path class="cls-14" d="M122.75,98s-20.91,33-11.7,55.19C110.2,128,122.75,98,122.75,98"/>
    <path class="cls-14" d="M59.35,293.09s-20.91,33-11.7,55.2c-.85-25.14,11.7-55.2,11.7-55.2"/>
    <path class="cls-14" d="M338.16,285.39s20.91,33,11.7,55.2c.85-25.14-11.7-55.2-11.7-55.2"/>
    <path class="cls-14" d="M129.07,98.65s-13.06,20.58-7.31,34.48c-.53-15.7,7.31-34.48,7.31-34.48"/>
    <path class="cls-14" d="M296.32,150.2s1-24.35-10.92-33.5c8.32,13.32,10.92,33.5,10.92,33.5"/>
    <path class="cls-14" d="M357.65,320.69s1-24.35-10.92-33.5c8.32,13.32,10.92,33.5,10.92,33.5"/>
    <path class="cls-15" d="M299.84,269s-24.64,70.26,31.52,96.73,51.1,26.47,51.1,26.47L374.25,367S331.48,367.8,327,347s-6.13-67-6.13-67l-21.83-46.22Z"/>
  </g>
  <g id="cheek_stripes" data-name="cheek stripes">
    <g>
      <polygon class="cls-16" points="142.41 176.86 135.25 191.79 144.79 176.86 142.41 176.86"/>
      <polyline class="cls-16" points="149.43 176.86 140.02 195.63 151.5 176.86"/>
      <polyline class="cls-16" points="154.31 176.86 145.76 202.18 156.95 176.86"/>
      <polyline class="cls-16" points="159.98 178.13 153.64 208.67 163.36 178.13"/>
      <polyline class="cls-16" points="165.82 178.13 161.75 211.91 168.75 178.13"/>
    </g>
    <g>
      <polygon class="cls-17" points="245.91 70.95 251.29 86.61 247.6 69.28 245.91 70.95"/>
      <polyline class="cls-17" points="250.91 66.02 257.39 85.99 252.38 64.57"/>
      <polyline class="cls-17" points="254.38 62.6 266.07 86.63 256.26 60.74"/>
      <polyline class="cls-17" points="259.31 59.51 276.24 85.72 261.71 57.14"/>
      <polyline class="cls-17" points="263.46 55.42 284.29 82.33 265.55 53.36"/>
    </g>
  </g>
  <g id="face_pattern" data-name="face pattern">
    <g>
      <path class="cls-12" d="M134.81,67.18a10.31,10.31,0,0,1-20.15,0h-2.5a12.58,12.58,0,1,0,25.15,0Z"/>
      <path class="cls-12" d="M157.32,66.51a10.32,10.32,0,0,1-20.16,0h-2.49a12.57,12.57,0,1,0,25.14,0Z"/>
    </g>
    <g>
      <path class="cls-13" d="M122.28,83.26a10.32,10.32,0,0,1-20.16,0H99.63a12.57,12.57,0,1,0,25.14,0Z"/>
      <path class="cls-13" d="M144.78,82.58a10.31,10.31,0,0,1-20.15,0h-2.5a12.58,12.58,0,1,0,25.15,0Z"/>
    </g>
    <path class="cls-18" d="M200.3,209.21c25.79-2.57,8.75-28.19,0-39.29C191.56,181,174.52,206.64,200.3,209.21Z"/>
    <path class="cls-19" d="M190,159.91a31.4,31.4,0,0,1-62.79,0c0-17.34,14.06-21.86,31.4-21.86S190,142.57,190,159.91Z"/>
    <path class="cls-20" d="M158.63,190.27a31.36,31.36,0,0,1-31.32-29.91c0,.49-.08.94-.08,1.45a31.4,31.4,0,0,0,62.79,0c0-.51-.05-1-.07-1.45A31.37,31.37,0,0,1,158.63,190.27Z"/>
    <path class="cls-20" d="M241,189.44a31.36,31.36,0,0,1-31.32-29.91c0,.49-.07.94-.07,1.45a31.4,31.4,0,0,0,62.79,0c0-.51-.06-1-.08-1.45A31.36,31.36,0,0,1,241,189.44Z"/>
    <path class="cls-21" d="M128.1,153.15s4.23-16.73,32.31-15.1,30.12,15.47,29.52,22.67c-.4,4.75-.53,5.47-.53,5.47.2,1.87,10.09-17-9.34-26.85-20-10.13-52.77-.78-54.48,6.14s-3.72,7.67-3.72,7.67l5.37,8.7Z"/>
    <polygon class="cls-22" points="125.92 145.48 119.67 153.15 121.19 161.29 127.23 161.85 122.52 153.91 125.92 145.48"/>
    <path class="cls-23" d="M209.62,158.48a31.4,31.4,0,0,0,62.79,0c0-17.34-14.06-21.86-31.4-21.86S209.62,141.14,209.62,158.48Z"/>
    <path class="cls-21" d="M271.54,151.72s-4.23-16.73-32.31-15.1-30.12,15.47-29.52,22.66c.4,4.76.53,5.48.53,5.48-.2,1.87-10.09-17,9.33-26.85,20.05-10.13,52.77-.79,54.49,6.14s3.72,7.67,3.72,7.67l-5.37,8.7Z"/>
    <polygon class="cls-22" points="273.72 144.04 279.97 151.72 278.45 159.86 272.41 160.42 277.12 152.48 273.72 144.04"/>
    <polygon class="cls-22" points="208.08 160.09 191.78 160.43 192.1 156.94 207.54 156.94 208.08 160.09"/>
  </g>
  <g id="clothes_pattern" data-name="clothes pattern">
    <g>
      <path class="cls-24" d="M100.35,362.34l-6.18,9.8a7.31,7.31,0,0,0,6.18,11.2h0"/>
      <path class="cls-24" d="M100.35,362.34l6.18,9.8a7.3,7.3,0,0,1-6.18,11.2h0"/>
    </g>
    <g>
      <path class="cls-24" d="M127.08,360.07,118,374.48a10.73,10.73,0,0,0,9.08,16.45h0"/>
      <path class="cls-24" d="M127.08,360.07l9.07,14.41a10.73,10.73,0,0,1-9.07,16.45h0"/>
    </g>
    <g>
      <path class="cls-14" d="M112.56,369l-6.18-11.5c-3.06-5.69.43-13.12,6.18-13.12h0"/>
      <path class="cls-14" d="M112.56,369l6.18-11.5c3.06-5.69-.43-13.12-6.18-13.12h0"/>
    </g>
    <g>
      <path class="cls-24" d="M53,365.83l-7.38,11.72A8.73,8.73,0,0,0,53,390.93h0"/>
      <path class="cls-24" d="M53,365.83l7.38,11.72A8.72,8.72,0,0,1,53,390.93h0"/>
    </g>
    <g>
      <path class="cls-14" d="M80.27,365.83l-7.39,11.72a8.73,8.73,0,0,0,7.39,13.38h0"/>
      <path class="cls-14" d="M80.27,365.83l7.38,11.72a8.73,8.73,0,0,1-7.38,13.38h0"/>
    </g>
    <g>
      <path class="cls-14" d="M67.55,373.8l-7.39-13.73c-3.66-6.81.52-15.68,7.39-15.68h0"/>
      <path class="cls-14" d="M67.55,373.8l7.38-13.73c3.66-6.81-.52-15.68-7.38-15.68h0"/>
    </g>
    <g>
      <path class="cls-12" d="M257,363.92c-7.16.48-11.62,6.93-9.34,13.45s6.77,12.53,10.81,12.06c3.87-.45,7.37-6.88,8.53-14.54C268.16,367.47,260,363.71,257,363.92Zm7,11.53c-.8,5.29-3.22,9.74-5.89,10.05s-5.9-3.79-7.48-8.34,1.51-9,6.46-9.3C259.21,367.72,264.83,370.32,264.05,375.45Z"/>
      <path class="cls-12" d="M279.71,361.86c-7.16.48-11.62,6.93-9.34,13.45s6.77,12.53,10.81,12.06c3.87-.44,7.37-6.88,8.53-14.53C290.84,365.41,282.71,361.66,279.71,361.86Zm7,11.54c-.8,5.29-3.22,9.74-5.89,10.05s-5.9-3.8-7.48-8.34,1.51-9,6.46-9.3C281.89,365.67,287.51,368.26,286.73,373.4Z"/>
      <path class="cls-12" d="M285.28,379.11c-1.15,3.95-8.37,7.48-15.67,8.14S255,385.7,253.18,382l-2.74.25c.51,5.71,9.25,9.59,19.51,8.66s18.15-6.32,17.63-12Z"/>
      <path class="cls-12" d="M302.94,360.57c-7.16.48-11.61,6.93-9.34,13.45s6.77,12.53,10.81,12.06c3.88-.44,7.37-6.88,8.53-14.53C314.07,364.12,305.94,360.37,302.94,360.57Zm7,11.54c-.8,5.29-3.22,9.74-5.89,10.05s-5.9-3.8-7.48-8.34,1.51-9,6.46-9.3C305.12,364.38,310.74,367,310,372.11Z"/>
      <path class="cls-12" d="M308.51,377.82c-1.15,3.95-8.37,7.48-15.66,8.14s-14.59-1.55-16.44-5.23l-2.74.25c.51,5.71,9.25,9.59,19.51,8.66s18.15-6.32,17.64-12Z"/>
      <path class="cls-12" d="M314.83,383.15c-7.3.66-14.59-1.55-16.43-5.23l-2.75.25c.52,5.71,9.25,9.59,19.51,8.65.56-.05,1.11-.11,1.65-.19a4.16,4.16,0,0,0,3.53-4.52h0A29.48,29.48,0,0,1,314.83,383.15Z"/>
      <path class="cls-12" d="M247.35,388.81c7.29-.66,14.07-4.15,15.22-8.1l2.75-.25c.51,5.71-7.38,11.09-17.64,12-.56.06-1.11.09-1.66.11a4.16,4.16,0,0,1-4.28-3.81h0A30,30,0,0,0,247.35,388.81Z"/>
    </g>
  </g>
  <g id="tears_bg" data-name="tears bg">
    <g>
      <path class="cls-1" d="M57.76,109.38l-5,8a6,6,0,0,0,5,9.15h0"/>
      <path class="cls-1" d="M57.76,109.38l5.05,8a6,6,0,0,1-5.05,9.15h0"/>
    </g>
    <g>
      <path class="cls-1" d="M351,249.29l-5.05,8a6,6,0,0,0,5.05,9.15h0"/>
      <path class="cls-1" d="M351,249.29l5.06,8a6,6,0,0,1-5.06,9.15h0"/>
    </g>
    <g>
      <path class="cls-1" d="M46.32,124.11l-7.56,12a8.93,8.93,0,0,0,7.56,13.69h0"/>
      <path class="cls-1" d="M46.32,124.11l7.55,12a8.93,8.93,0,0,1-7.55,13.69h0"/>
    </g>
  </g>
  <g id="line_pattern_bg" data-name="line pattern bg">
    <g>
      <rect class="cls-25" x="334.19" y="156.74" width="53.07" height="1.96"/>
      <rect class="cls-25" x="334.19" y="163.61" width="53.07" height="1.96"/>
      <rect class="cls-25" x="334.19" y="171.96" width="53.07" height="1.96"/>
    </g>
    <g>
      <rect class="cls-25" x="28.18" y="212.91" width="53.07" height="1.96"/>
      <rect class="cls-25" x="28.18" y="219.78" width="53.07" height="1.96"/>
      <rect class="cls-25" x="28.18" y="228.13" width="53.07" height="1.96"/>
    </g>
    <g>
      <rect class="cls-1" x="323.46" y="208.25" width="53.07" height="1.96"/>
      <rect class="cls-1" x="323.46" y="215.12" width="53.07" height="1.96"/>
      <rect class="cls-1" x="323.46" y="223.47" width="53.07" height="1.96"/>
    </g>
    <g>
      <rect class="cls-1" x="1.64" y="263.65" width="53.07" height="1.96"/>
      <rect class="cls-1" x="1.64" y="270.52" width="53.07" height="1.96"/>
      <rect class="cls-1" x="1.64" y="278.87" width="53.07" height="1.96"/>
    </g>
  </g>
  <g id="eyes">
    <g>
      <path d="M161.75,169.88s-14.51.21-14.89-10.36,14.89-10.36,14.89-10.36"/>
      <path d="M161.75,169.88s13.62.21,14-10.36-14-10.36-14-10.36"/>
    </g>
    <g>
      <path d="M188.23,161s-21.09-28.79-56.5-2.1C157.2,154.32,164.88,148.11,188.23,161Z"/>
      <path d="M168.4,172.31S145.87,174,140.81,164c.87,4.48-10.35,11.78-10.35,11.78l13.59-4.59S158.32,175.61,168.4,172.31Z"/>
    </g>
    <g>
      <path d="M239.45,168.47s13.85.23,14.21-10.81-14.21-10.82-14.21-10.82"/>
      <path d="M239.45,168.47s-13,.23-13.34-10.81,13.34-10.82,13.34-10.82"/>
    </g>
    <g>
      <path d="M212.67,160.27s21.09-28.78,56.5-2.09C243.71,153.61,236,147.4,212.67,160.27Z"/>
      <path d="M232.5,171.61s22.53,1.72,27.59-8.29c-.87,4.49,10.35,11.79,10.35,11.79l-13.58-4.59S242.58,174.91,232.5,171.61Z"/>
    </g>
    <path d="M185.33,204s10.79,6.48,15.18,6c-.07,1.48,0,3.1,0,3.1s-11.11-2.26-15.18-8.83"/>
    <path d="M215.48,204s-10.79,6.48-15.18,6c.07,1.48,0,3.1,0,3.1s11.11-2.26,15.18-8.83"/>
  </g>
  <g id="background_pattern" data-name="background pattern">
    <g>
      <path class="cls-2" d="M49.09,94.76a8.47,8.47,0,0,1-16.55,0H30.49a10.32,10.32,0,1,0,20.64,0Z"/>
      <path class="cls-2" d="M67.56,94.21a8.47,8.47,0,0,1-16.55,0H49a10.32,10.32,0,1,0,20.64,0Z"/>
    </g>
    <g>
      <path class="cls-2" d="M63.51,79.16a8.47,8.47,0,0,1-16.54,0h-2a10.32,10.32,0,0,0,20.64,0Z"/>
      <path class="cls-2" d="M82,78.61a8.47,8.47,0,0,1-16.55,0h-2a10.33,10.33,0,0,0,20.65,0Z"/>
    </g>
    <g>
      <path class="cls-2" d="M371.73,283.94a8.47,8.47,0,0,1-16.55,0h-2.05a10.32,10.32,0,0,0,20.64,0Z"/>
      <path class="cls-2" d="M390.2,283.39a8.47,8.47,0,0,1-16.54,0h-2.05a10.32,10.32,0,0,0,20.64,0Z"/>
    </g>
  </g>
</svg>
