<svg xmlns="http://www.w3.org/2000/svg" width="300" height="300" viewBox="0 0 400 400">
  <defs>
    <style>
      .cls-1 {
        fill: #fcc10a;
      }

      .cls-2 {
        fill: #f9ecc7;
      }

      .cls-3 {
        fill: #64a5da;
      }

      .cls-4 {
        fill: #616160;
      }

      .cls-5 {
        fill: #473031;
      }

      .cls-6 {
        fill: #936037;
      }

      .cls-7 {
        fill: #080405;
      }

      .cls-8 {
        fill: #543b32;
      }

      .cls-9 {
        fill: #723727;
      }

      .cls-10 {
        fill: #d43616;
      }

      .cls-11 {
        fill: #f3975b;
      }

      .cls-12 {
        fill: #ec6524;
      }

      .cls-13 {
        fill: #1d181d;
      }

      .cls-14 {
        fill: #294b9b;
      }

      .cls-15 {
        fill: #471c21;
      }

      .cls-16 {
        fill: #120c0a;
      }

      .cls-17 {
        fill: #3f3f32;
      }

      .cls-18 {
        fill: #e9570e;
      }

                  #eyebrows {
        animation: eyebrowsmove 4s linear infinite;
      }

          @keyframes eyebrowsmove {
      0% {
          transform: translate(0%, 0%);
      }
      50% {
        transform: translate(0%, -2%);
      }
      100% {
          transform: translate(0%, 0.2%);
      }
    }

      #face_color, #facemain, #facesplit, #eyes, #hair_strands, #spiral_hair, #earsline, #face_pattern, #front_hair {
        animation: MoveUpDown 4s linear infinite;
      }

          @keyframes MoveUpDown {
      0% {
          transform: translate(0%, 0%);
      }
      50% {
        transform: translate(0%, -1%);
      }
      80% {
          transform: translate(0%, 0.2%);
      }
      100% {
          transform: translate(0%, 0%);
      }

    } 

      #clothes_pattern, #clothe_bottom, #shirt {
        animation: ClothesMoveUpDown 5s linear infinite;
      }

          @keyframes ClothesMoveUpDown {
      0% {
          transform: translate(0%, 0%);
      }
      50% {
        transform: translate(0%, 1.2%);
      }
      100% {
          transform: translate(0%, 0%);
      }
    } 


  #face_pattern, #clothes_pattern, #line_pattern_bg, #background_pattern  
   {}

      #clothes_pattern, #line_pattern_bg {
    stroke-dasharray: 8;
    stroke-dashoffset: 0;
    animation: symbolsmove 1s ease-in-out 0s forwards infinite;
    }

@keyframes symbolsmove {
    0% {
        stroke-dashoffset: 10;
        stroke: red;

    }
    50% {
        stroke-dashoffset: 8;
       stroke: 0px;
    }

        100% {
        stroke-dashoffset: 10;
        stroke: red;
        }
     } 

         #mouth, #hair_shadow {
        animation: mouthanimate 4s ease infinite alternate;
        transform-origin: center;

      }

          @keyframes mouthanimate {  
    0% {
        transform: scaleX(1) translate(0%, -0.6%);
    }
    50% {
        transform: scaleX(1.1) translate(0%, -1%);
    }
    100% {
        transform: scaleX(1) translate(0%, 0%);
    }

 }

  #circle_background{
          animation: circle 7s ease infinite alternate;
          transform-origin: center;
 stroke-dasharray: 8;
    stroke-dashoffset: 0;
        }
        
        @keyframes circle{
      0% {
          transform: scale(1);
      }
      30% {
          transform: scale(0.9);;
      }
      40% {
          transform: scale(1);
      }
  }

      #tears_bg {
        animation: 5s tears_fall
        ease-in-out 0s forwards infinite;
            stroke-width:2px;
            stroke-dasharray: 20;
            stroke-dashoffset: 0;
      }
      @keyframes tears_fall {
     0% {
          transform: translate(0%, 0%);
          stroke-dashoffset: 40;
          stroke: #EB775C;
      }
      50% {
        transform: translate(0%, 2%);
        stroke-dashoffset: 10;
        stroke: 0px;
      }
      100% {
          transform: translate(0%, 0%);
          stroke-dashoffset: 40;
         stroke: #EB775C;
      }
    }


    #cheek_stripes
     {
        animation: 5s
        infinite alternate a;

      }
      @keyframes a {
     0% {
          transform: translate(0%, 0%);
          opacity:0.5;
      }
      100% {
          opacity:1;
          transform: translate(0%, -2%)
      }
    }

      #spiral_hair {
    fill-opacity:0;
    stroke-width:2px;
    stroke-dasharray: 20;
    stroke-dashoffset: 0;
    animation: hair_spiral 1s ease-in-out 0s forwards infinite;
    }

@keyframes hair_spiral {
    0% {
        stroke-dashoffset: 20;
        stroke: #1D181D;

    }
    50% {
        stroke-dashoffset: 10;
       stroke: 0px;
    }

          100% {
        stroke-dashoffset: 20;
        stroke: #1D181D;
        }
     } 

      #face_pattern
 {
    fill-opacity:1;
    stroke-width:2px;
    stroke-dasharray: 20;
    stroke-dashoffset: 0;
    animation: face_pattern_animate 1s ease-in-out 0s forwards infinite;
    }

@keyframes face_pattern_animate {
    0% {
        stroke-dashoffset: 20;
        stroke: #D43616;

    }
    50% {
        stroke-dashoffset: 10;
       stroke: 0px;
    }

        100% {
        stroke-dashoffset: 20;
        stroke: #D43616;
        }
     } 
     

    </style>
  </defs>
  <g id="background_color" data-name="background color">
    <rect class="cls-1" y="0.47" width="400" height="400"/>
  </g>
  <g id="circle_background" data-name="circle background">
    <circle class="cls-2" cx="203.33" cy="199.53" r="180.75"/>
        <g>
      <polyline class="cls-1" points="347.18 54.39 383.78 112.48 347.18 112.48"/>
      <polyline class="cls-1" points="347.18 54.39 310.58 112.48 347.18 112.48"/>
    </g>
  </g>
  <g id="clothe_bottom" data-name="clothe bottom">
    <polygon class="cls-3" points="195.46 293.23 192.73 355.54 195.46 293.23 195.46 293.23"/>
    <polygon class="cls-3" points="136.32 310.7 149.96 289.9 27.13 355.63 12.69 399.98 190.98 399.98 192.73 359.92 195.46 297.62 136.32 310.7"/>
    <polygon class="cls-4" points="377.99 399.95 363.55 355.42 240.71 289.43 254.35 310.31 192.47 296.57 192.46 296.79 192.46 296.79 189.73 359.35 187.96 399.95 377.99 399.95"/>
    <polygon class="cls-4" points="136.32 310.7 149.96 289.9 27.13 355.63 12.69 399.98 190.98 399.98 192.73 359.92 195.46 297.62 136.32 310.7"/>
    <polygon class="cls-3" points="195.46 293.23 192.73 355.54 195.46 293.23 195.46 293.23"/>
  </g>
  <g id="neck">
    <path class="cls-5" d="M146.22,249s11.35,30.26,0,41.26l-25.78,22s47.1,45.38,68.42,45.72,11.69,0,11.69,0l-1.47-92.13Z"/>
    <path class="cls-6" d="M248.1,249s-11.34,30.26,0,41.26l25.78,22s-47.1,45.38-68.42,45.72-11.68,0-11.68,0l1.46-92.13Z"/>
  </g>
  <g id="neck_shadow" data-name="neck shadow">
    <polygon class="cls-7" points="149.4 254.35 150.89 274.42 174.85 298.49 196.27 301.67 200.63 262.65 149.4 254.35"/>
    <polygon class="cls-7" points="246.7 254.35 243.83 272.19 219.88 296.25 195.26 301.67 194.1 260.41 246.7 254.35"/>
  </g>
  <g id="facemain">
    <path class="cls-8" d="M199.08,59.62s-86.37-10.5-82.76,93.15c0,0,4.55,33.13,4.12,31.21,6.54,29.45,2.76,9.07,7.74,40.46l14.95,27.85s24.24,26.3,30.43,26.3h23.2"/>
  </g>
  <g id="facesplit">
    <path class="cls-9" d="M190.86,60s88.69-10.83,85.05,92.82c0,0,1.14-12.42-6.67,37.6-1.82,25.82.36,4.91-5.3,34.07l-15.08,27.85s-24.46,26.3-30.7,26.3H194.75"/>
  </g>
  <g id="face_color" data-name="face color">
    <path class="cls-10" d="M250.05,161.21c1.55.2,29.1-4.48,7.91,31.09s-48.87,12.5-48.87,12.5-8.67,10.09-15,6.45c-3.42-46.11-3.42-44.82-3.42-44.82"/>
    <path class="cls-11" d="M274.17,159.92s30.45-21.86,22.72,22.17c-18.56,35.41-12,39.07-34.73,43.16"/>
    <path class="cls-10" d="M142.42,161.21c-1.55.2-29.1-4.48-7.9,31.09s48.86,12.5,48.86,12.5,8.67,10.09,15,6.45c3.43-46.11,3.43-44.82,3.43-44.82"/>
    <path class="cls-12" d="M116.73,160.89s-30.17-22.83-22.44,21.2c18.57,35.41,12,39.07,34.73,43.16"/>
  </g>
  <g id="earsline">
    <polyline points="269.3 190.37 269.2 190.95 265.31 213.43 281.29 199.22 269.04 206.87 283.87 175.88"/>
    <polyline points="123.69 191 123.79 191.58 127.69 214.06 111.7 199.84 123.95 207.49 109.12 176.51"/>
  </g>
  <g id="mouth">
    <polyline class="cls-7" points="172.31 248.22 194.55 241.31 216.47 248.22"/>
  </g>
  <g id="eyebrows">
    <path class="cls-12" d="M210.61,144.05l4.78-9.57s17.53-10.56,35.68-1.94,15.27,7.75,15.27,7.75-23-6.25-34-2.89Z"/>
    <path class="cls-10" d="M179.79,143l-5.15-9.39s-17.93-9.86-35.73-.53-15,8.34-15,8.34,22.73-7.14,33.85-4.22Z"/>
  </g>
  <g id="hair_strands" data-name="hair strands">
    <path class="cls-13" d="M235.22,39.19l-28.08-7.25-66.92,8.94c-4.43,3.25-28.36,37.35-34.25,51.89-5.71,14.1,10.24,62.2,10.76,68.12l25.89-57.3,113.58,2.5,19.54,56.51,5-73.94s-5.39-14-6.11-16.32C270.85,60.59,252,51.26,252.86,49.77Z"/>
    <polygon class="cls-4" points="261.12 120.31 280.16 96.67 275.74 162.6 261.12 120.31"/>
    <polygon class="cls-14" points="135.77 118.75 105.73 112.96 116.79 162.6 135.77 118.75"/>
  </g>
  <g id="cheek_stripes" data-name="cheek stripes">
    <polygon class="cls-12" points="138.18 176.51 131.02 191.44 140.56 176.51 138.18 176.51"/>
    <polyline class="cls-12" points="145.19 176.51 135.79 195.28 147.26 176.51"/>
    <polyline class="cls-12" points="150.07 176.51 141.52 201.83 152.71 176.51"/>
    <polyline class="cls-12" points="155.75 177.78 149.4 208.32 159.12 177.78"/>
    <polyline class="cls-12" points="161.91 177.78 155.47 211.56 166.56 177.78"/>
  </g>
  <g id="face_pattern" data-name="face pattern">
    <g>
      <rect class="cls-15" x="247.71" y="49.36" width="31.75" height="1.17"/>
      <rect class="cls-15" x="247.71" y="53.46" width="31.75" height="1.17"/>
      <rect class="cls-15" x="247.71" y="58.46" width="31.75" height="1.17"/>
    </g>
    <g>
      <rect class="cls-16" x="99.25" y="79.33" width="31.75" height="1.17"/>
      <rect class="cls-16" x="99.25" y="83.43" width="31.75" height="1.17"/>
      <rect class="cls-16" x="99.25" y="88.43" width="31.75" height="1.17"/>
    </g>
    <g>
      <path class="cls-16" d="M254.31,87.34a8.47,8.47,0,0,1-16.55,0h-2a10.32,10.32,0,1,0,20.64,0Z"/>
      <path class="cls-16" d="M272.78,86.79a8.46,8.46,0,0,1-16.54,0h-2.05a10.32,10.32,0,1,0,20.64,0Z"/>
    </g>
    <g>
      <path class="cls-16" d="M128.06,81.91a8.47,8.47,0,0,1-16.55,0h-2.05a10.33,10.33,0,0,0,20.65,0Z"/>
      <path class="cls-16" d="M146.54,81.36a8.47,8.47,0,0,1-16.55,0h-2.05a10.32,10.32,0,0,0,20.64,0Z"/>
    </g>
    <g>
      <path class="cls-16" d="M115.24,95.78a8.47,8.47,0,0,1-16.54,0h-2a10.32,10.32,0,1,0,20.64,0Z"/>
      <path class="cls-16" d="M133.72,95.23a8.47,8.47,0,0,1-16.55,0h-2a10.32,10.32,0,0,0,20.64,0Z"/>
    </g>
    <path class="cls-12" d="M196.07,210.06c25.84-2.67,8.64-29.64,0-41.13C187.42,180.42,170.22,207.39,196.07,210.06Z"/>
  </g>
  <g id="clothes_pattern" data-name="clothes pattern">
    <g>
      <polyline class="cls-11" points="70.03 341.05 57.05 361.65 70.03 361.65"/>
      <polyline class="cls-11" points="70.03 341.05 83.01 361.65 70.03 361.65"/>
    </g>
    <g>
      <polyline class="cls-11" points="112.1 340.49 99.12 361.1 112.1 361.1"/>
      <polyline class="cls-11" points="112.1 340.49 125.08 361.1 112.1 361.1"/>
    </g>
    <g>
      <polyline class="cls-10" points="91.49 360.44 78.51 340.7 91.49 340.7"/>
      <polyline class="cls-10" points="91.49 360.44 104.47 340.7 91.49 340.7"/>
    </g>
    <g>
      <rect class="cls-10" x="34.19" y="368.74" width="50.18" height="1.85"/>
      <rect class="cls-10" x="34.19" y="375.24" width="50.18" height="1.85"/>
      <rect class="cls-10" x="34.19" y="383.13" width="50.18" height="1.85"/>
    </g>
    <g>
      <path class="cls-17" d="M358,361.71a8.47,8.47,0,0,1-16.55,0h-2.05a10.33,10.33,0,1,0,20.65,0Z"/>
      <path class="cls-17" d="M376.45,361.16a8.46,8.46,0,0,1-16.54,0h-2.05a10.32,10.32,0,0,0,20.64,0Z"/>
    </g>
    <g>
      <path class="cls-17" d="M321.78,366.6a8.47,8.47,0,0,1-16.54,0h-2.05a10.32,10.32,0,0,0,20.64,0Z"/>
      <path class="cls-17" d="M340.26,366.05a8.47,8.47,0,0,1-16.55,0h-2a10.33,10.33,0,0,0,20.65,0Z"/>
    </g>
  </g>
  <g id="spiral_hair" data-name="spiral hair">
    <g>
      <path class="cls-16" d="M203.23,30.81c-5.89,0-9.92,5-8.46,10.45s4.8,10.67,8.13,10.53,6.45-5.19,7.86-11.39C212.13,34.39,205.7,30.83,203.23,30.81Zm5.06,9.87c-1,4.28-3.22,7.78-5.43,7.88s-4.6-3.47-5.62-7.28a5.72,5.72,0,0,1,5.84-7.23C204.79,34.06,209.23,36.53,208.29,40.68Z"/>
      <path class="cls-16" d="M221.93,30.49c-5.89,0-9.93,5-8.46,10.45s4.79,10.67,8.13,10.53c3.19-.13,6.44-5.19,7.85-11.39C230.82,34.07,224.39,30.51,221.93,30.49Zm5,9.87c-1,4.29-3.22,7.78-5.43,7.88S217,44.77,215.93,41a5.72,5.72,0,0,1,5.85-7.23C223.48,33.74,227.93,36.21,227,40.36Z"/>
      <path class="cls-16" d="M225.45,45c-1.18,3.17-7.3,5.62-13.32,5.73S200.28,48.52,199,45.4l-2.26,0c.08,4.71,7,8.41,15.45,8.26s15.25-4.07,15.17-8.78Z"/>
      <path class="cls-16" d="M241,30.84c-5.89,0-9.92,5-8.46,10.45s4.8,10.67,8.13,10.53,6.45-5.2,7.86-11.39C249.92,34.41,243.49,30.85,241,30.84Zm5.06,9.86c-1,4.29-3.22,7.79-5.43,7.88s-4.6-3.47-5.62-7.28a5.73,5.73,0,0,1,5.85-7.23C242.58,34.08,247,36.55,246.08,40.7Z"/>
      <path class="cls-16" d="M244.59,46.3c-1.18,3.16-7.3,5.62-13.32,5.72s-11.85-2.15-13.14-5.27l-2.26,0c.08,4.7,7,8.4,15.45,8.26s15.25-4.08,15.17-8.79Z"/>
      <path class="cls-16" d="M249.4,50c-6,.1-11.85-2.15-13.14-5.27l-2.26,0c.08,4.7,7,8.4,15.45,8.26.46,0,.91,0,1.36-.06A3.43,3.43,0,0,0,254,49.52h0A24.6,24.6,0,0,1,249.4,50Z"/>
      <path class="cls-16" d="M193.81,50.61c6-.1,11.77-2.55,12.95-5.71l2.26,0c.08,4.7-6.71,8.64-15.16,8.78-.46,0-.92,0-1.36,0a3.42,3.42,0,0,1-3.28-3.38h0A24,24,0,0,0,193.81,50.61Z"/>
    </g>
    <g>
      <path class="cls-16" d="M143,34.94c-5.89,0-9.93,5-8.46,10.45s4.79,10.67,8.13,10.53c3.19-.13,6.44-5.19,7.85-11.39C151.9,38.52,145.48,35,143,34.94Zm5.05,9.87c-1,4.28-3.22,7.78-5.43,7.87S138,49.22,137,45.4a5.73,5.73,0,0,1,5.85-7.22C144.56,38.19,149,40.65,148.06,44.81Z"/>
      <path class="cls-16" d="M161.7,34.62c-5.89,0-9.93,5-8.46,10.45S158,55.74,161.37,55.6s6.44-5.19,7.86-11.39C170.6,38.2,164.17,34.64,161.7,34.62Zm5.06,9.87c-1,4.28-3.23,7.78-5.44,7.88s-4.59-3.47-5.62-7.28a5.73,5.73,0,0,1,5.85-7.23C163.26,37.87,167.7,40.33,166.76,44.49Z"/>
      <path class="cls-16" d="M165.23,49.08c-1.19,3.16-7.31,5.62-13.32,5.72s-11.85-2.15-13.14-5.27l-2.27,0c.08,4.71,7,8.41,15.46,8.26s15.24-4.07,15.16-8.78Z"/>
      <path class="cls-16" d="M180.8,35c-5.89,0-9.93,5-8.46,10.45s4.79,10.67,8.13,10.53,6.44-5.19,7.86-11.39C189.7,38.54,183.27,35,180.8,35Zm5,9.87c-1,4.29-3.22,7.78-5.43,7.88s-4.6-3.47-5.62-7.28a5.74,5.74,0,0,1,5.85-7.23C182.36,38.21,186.8,40.68,185.85,44.83Z"/>
      <path class="cls-16" d="M184.37,50.42c-1.19,3.17-7.31,5.62-13.32,5.73S159.2,54,157.91,50.88l-2.27,0c.08,4.71,7,8.41,15.46,8.27s15.24-4.08,15.16-8.79Z"/>
      <path class="cls-16" d="M189.17,54.17c-6,.1-11.85-2.15-13.14-5.27l-2.26,0c.08,4.7,7,8.4,15.46,8.26.45,0,.91,0,1.36-.06a3.43,3.43,0,0,0,3.16-3.49h0A24.81,24.81,0,0,1,189.17,54.17Z"/>
      <path class="cls-16" d="M133.58,54.74c6-.1,11.77-2.55,12.95-5.72l2.27,0c.08,4.71-6.71,8.64-15.17,8.79-.46,0-.91,0-1.36,0A3.43,3.43,0,0,1,129,54.37h0A24.11,24.11,0,0,0,133.58,54.74Z"/>
    </g>
    <g>
      <path class="cls-15" d="M141.41,51.82c-5.89,0-9.93,5-8.46,10.45s4.79,10.67,8.13,10.53,6.45-5.19,7.86-11.39C150.31,55.4,143.88,51.84,141.41,51.82Zm5.06,9.87c-1,4.29-3.23,7.78-5.44,7.88s-4.59-3.47-5.62-7.28a5.73,5.73,0,0,1,5.85-7.23C143,55.07,147.41,57.54,146.47,61.69Z"/>
      <path class="cls-15" d="M160.1,51.5c-5.89,0-9.92,5-8.46,10.46s4.8,10.66,8.13,10.52,6.45-5.19,7.86-11.39C169,55.08,162.57,51.52,160.1,51.5Zm5.06,9.87c-1,4.29-3.22,7.78-5.43,7.88s-4.6-3.47-5.62-7.28A5.73,5.73,0,0,1,160,54.74C161.66,54.75,166.11,57.22,165.16,61.37Z"/>
      <path class="cls-15" d="M163.63,66c-1.19,3.17-7.31,5.62-13.32,5.73s-11.85-2.15-13.14-5.27l-2.26,0c.08,4.71,7,8.41,15.45,8.27s15.25-4.08,15.17-8.79Z"/>
      <path class="cls-15" d="M179.2,51.85c-5.89,0-9.93,5-8.46,10.45s4.79,10.67,8.13,10.53,6.45-5.2,7.86-11.39C188.1,55.42,181.67,51.86,179.2,51.85Zm5.06,9.87c-1,4.28-3.22,7.78-5.43,7.87s-4.6-3.47-5.63-7.28a5.72,5.72,0,0,1,5.85-7.22C180.76,55.1,185.2,57.56,184.26,61.72Z"/>
      <path class="cls-15" d="M182.77,67.31c-1.18,3.16-7.31,5.62-13.32,5.72s-11.85-2.15-13.14-5.27l-2.26,0c.08,4.7,7,8.4,15.45,8.26s15.25-4.08,15.17-8.78Z"/>
      <path class="cls-15" d="M187.58,71.05c-6,.1-11.85-2.15-13.14-5.27l-2.27,0c.08,4.71,7,8.4,15.46,8.26.46,0,.91,0,1.36-.06a3.42,3.42,0,0,0,3.16-3.49h0A24.7,24.7,0,0,1,187.58,71.05Z"/>
      <path class="cls-15" d="M132,71.62c6-.1,11.77-2.55,13-5.71l2.26,0c.08,4.7-6.71,8.64-15.16,8.78-.46,0-.92,0-1.37,0a3.42,3.42,0,0,1-3.27-3.38h0A24,24,0,0,0,132,71.62Z"/>
    </g>
    <g>
      <path class="cls-15" d="M216.41,49.83c-5.89,0-9.93,5-8.46,10.45s4.79,10.67,8.13,10.53,6.44-5.2,7.86-11.39C225.31,53.4,218.88,49.84,216.41,49.83Zm5.05,9.86c-1,4.29-3.22,7.79-5.43,7.88s-4.59-3.47-5.62-7.28a5.74,5.74,0,0,1,5.85-7.23C218,53.07,222.41,55.54,221.46,59.69Z"/>
      <path class="cls-15" d="M235.1,49.51c-5.89,0-9.92,5-8.46,10.45s4.8,10.67,8.13,10.53,6.45-5.2,7.86-11.39C244,53.09,237.57,49.52,235.1,49.51Zm5.06,9.87c-1,4.28-3.22,7.78-5.43,7.87s-4.6-3.47-5.62-7.28A5.71,5.71,0,0,1,235,52.75C236.66,52.76,241.1,55.22,240.16,59.38Z"/>
      <path class="cls-15" d="M238.63,64c-1.19,3.16-7.31,5.62-13.32,5.72s-11.85-2.15-13.14-5.27l-2.26,0c.08,4.7,7,8.4,15.45,8.26s15.24-4.08,15.16-8.79Z"/>
      <path class="cls-15" d="M254.2,49.85c-5.89,0-9.93,5-8.46,10.45s4.79,10.67,8.13,10.53,6.45-5.2,7.86-11.39C263.1,53.43,256.67,49.86,254.2,49.85Zm5.06,9.87c-1,4.28-3.23,7.78-5.44,7.87s-4.59-3.46-5.62-7.28a5.72,5.72,0,0,1,5.85-7.22C255.76,53.1,260.2,55.56,259.26,59.72Z"/>
      <path class="cls-15" d="M257.77,65.31c-1.19,3.16-7.31,5.62-13.32,5.72s-11.85-2.15-13.14-5.27l-2.26,0c.08,4.71,7,8.41,15.45,8.26s15.25-4.08,15.16-8.78Z"/>
      <path class="cls-15" d="M262.58,69.05c-6,.11-11.85-2.15-13.14-5.27l-2.27,0c.08,4.71,7,8.41,15.46,8.26.46,0,.91,0,1.36,0a3.43,3.43,0,0,0,3.16-3.5h0A24,24,0,0,1,262.58,69.05Z"/>
      <path class="cls-15" d="M207,69.62c6-.1,11.77-2.55,13-5.71l2.26,0c.08,4.71-6.71,8.64-15.16,8.78-.46,0-.92,0-1.37,0a3.41,3.41,0,0,1-3.27-3.38h0A24,24,0,0,0,207,69.62Z"/>
    </g>
  </g>
  <g id="tears_bg" data-name="tears bg">
    <g>
      <path class="cls-1" d="M54.54,116.86l-5,8a6,6,0,0,0,5,9.16h0"/>
      <path class="cls-1" d="M54.54,116.86l5.05,8A6,6,0,0,1,54.54,134h0"/>
    </g>
    <g>
      <path class="cls-1" d="M347.73,256.77l-5.05,8a6,6,0,0,0,5.05,9.16h0"/>
      <path class="cls-1" d="M347.73,256.77l5,8a6,6,0,0,1-5,9.16h0"/>
    </g>
    <g>
      <path class="cls-1" d="M43.1,131.59l-7.56,12a8.93,8.93,0,0,0,7.56,13.69h0"/>
      <path class="cls-1" d="M43.1,131.59l7.55,12a8.93,8.93,0,0,1-7.55,13.69h0"/>
    </g>
    <g>
      <path class="cls-1" d="M336.7,271l-6.92,11a8.18,8.18,0,0,0,6.92,12.54h0"/>
      <path class="cls-1" d="M336.7,271l6.92,11a8.18,8.18,0,0,1-6.92,12.54h0"/>
    </g>
  </g>
  <g id="line_pattern_bg" data-name="line pattern bg">
    <g>
      <rect class="cls-18" x="330.97" y="164.23" width="53.07" height="1.96"/>
      <rect class="cls-18" x="330.97" y="171.1" width="53.07" height="1.96"/>
      <rect class="cls-18" x="330.97" y="179.44" width="53.07" height="1.96"/>
    </g>
    <g>
      <rect class="cls-18" x="24.96" y="220.4" width="53.07" height="1.96"/>
      <rect class="cls-18" x="24.96" y="227.27" width="53.07" height="1.96"/>
      <rect class="cls-18" x="24.96" y="235.62" width="53.07" height="1.96"/>
    </g>
    <g>
      <rect class="cls-1" x="320.24" y="218.83" width="53.07" height="1.96"/>
      <rect class="cls-1" x="320.24" y="225.7" width="53.07" height="1.96"/>
      <rect class="cls-1" x="320.24" y="234.04" width="53.07" height="1.96"/>
    </g>
    <g>
      <rect class="cls-1" x="8.15" y="274.23" width="53.07" height="1.96"/>
      <rect class="cls-1" x="8.15" y="281.1" width="53.07" height="1.96"/>
      <rect class="cls-1" x="8.15" y="289.45" width="53.07" height="1.96"/>
    </g>
  </g>
  <g id="eyes">
    <g>
      <path d="M157.51,167.1s-14.51.21-14.88-10.36,14.88-10.36,14.88-10.36"/>
      <path d="M157.51,167.1s13.62.21,14-10.36-14-10.36-14-10.36"/>
    </g>
    <g>
      <path d="M184,158.2c1.51,2.06-22.61-27.65-56.5-2.09C153,151.54,160.64,145.33,184,158.2Z"/>
      <path d="M164.17,167.13s-22.54,1.72-27.59-8.28c.87,4.48-3,7.26-3,7.26l6.19-.06S154.09,170.44,164.17,167.13Z"/>
    </g>
    <g>
      <path d="M235.22,166.89s13.84.23,14.2-10.81-14.2-10.82-14.2-10.82"/>
      <path d="M235.22,166.89s-13,.23-13.35-10.81,13.35-10.82,13.35-10.82"/>
    </g>
    <g>
      <path d="M209.2,158.06s21.09-28.78,56.5-2.09C240.24,151.4,232.55,145.19,209.2,158.06Z"/>
      <path d="M228.26,166.43s22.53,1.72,27.59-8.28c-.87,4.48,3.79,6.59,3.79,6.59l-7,.6S238.34,169.73,228.26,166.43Z"/>
    </g>
    <path d="M181.09,203.65s10.79,6.48,15.18,6c-.06,1.49,0,3.1,0,3.1s-11.11-2.26-15.18-8.83"/>
    <path d="M211.25,203.65s-10.79,6.48-15.18,6c.06,1.49,0,3.1,0,3.1s11.1-2.26,15.18-8.83"/>
  </g>
  <g id="background_pattern" data-name="background pattern">
    <g>
      <path class="cls-2" d="M45.86,102.25a8.47,8.47,0,0,1-16.54,0H27.27a10.32,10.32,0,1,0,20.64,0Z"/>
      <path class="cls-2" d="M64.34,101.7a8.47,8.47,0,0,1-16.55,0h-2a10.33,10.33,0,0,0,20.65,0Z"/>
    </g>
    <g>
      <path class="cls-2" d="M60.29,86.65a8.47,8.47,0,0,1-16.55,0h-2a10.32,10.32,0,0,0,20.64,0Z"/>
      <path class="cls-2" d="M78.77,86.09a8.47,8.47,0,0,1-16.55,0h-2a10.33,10.33,0,1,0,20.65,0Z"/>
    </g>
    <g>
      <path class="cls-2" d="M354.08,307a8.47,8.47,0,0,1-16.55,0h-2a10.33,10.33,0,1,0,20.65,0Z"/>
      <path class="cls-2" d="M372.55,306.48a8.46,8.46,0,0,1-16.54,0H354a10.32,10.32,0,1,0,20.64,0Z"/>
    </g>
    <g>
      <path class="cls-2" d="M368.5,291.43a8.47,8.47,0,0,1-16.54,0h-2a10.32,10.32,0,1,0,20.64,0Z"/>
      <path class="cls-2" d="M387,290.88a8.47,8.47,0,0,1-16.55,0h-2a10.32,10.32,0,0,0,20.64,0Z"/>
    </g>
  </g>
</svg>
