<svg xmlns="http://www.w3.org/2000/svg" width="300" height="300" viewBox="0 0 400 400">
  <defs>
    <style>
      .cls-1 {
        fill: #eb775c;
      }

      .cls-2 {
        fill: #fcc10a;
      }

      .cls-3 {
        fill: #294b9b;
      }

      .cls-4 {
        fill: #616160;
      }

      .cls-5 {
        fill: #080405;
      }

      .cls-6 {
        fill: #64a5da;
      }

      .cls-7 {
        fill: #3f3f32;
      }

      .cls-8 {
        fill: #eac6a0;
      }

      .cls-9 {
        fill: #e08157;
      }

      .cls-10 {
        fill: #f1975b;
      }

      .cls-11 {
        fill: #ea965c;
      }

      .cls-12 {
        fill: #eb5a5b;
      }

      .cls-13 {
        fill: #e8ab69;
      }

      .cls-14 {
        fill: #e55f5d;
      }

      .cls-15 {
        fill: #d38083;
      }

      .cls-16 {
        fill: #e98585;
      }

      .cls-17 {
        fill: #f3975b;
      }

      .cls-18 {
        fill: #93181d;
      }

      .cls-19 {
        fill: #d43616;
      }

      .cls-20 {
        fill: #f9f0d7;
      }

      .cls-21 {
        fill: #f9ecc7;
      }

        #eyebrows {
        animation: eyebrowsmove 4s linear infinite;
      }

          @keyframes eyebrowsmove {
      0% {
          transform: translate(0%, 0%);
      }
      50% {
        transform: translate(0%, -2%);
      }
      100% {
          transform: translate(0%, 0.2%);
      }
    }

      #face_color, #facemain, #facesplit, #eyes, #hair_strands, #spiral_hair, #earsline, #face_pattern, #front_hair, #front_hair {
        animation: MoveUpDown 4s linear infinite;
      }

          @keyframes MoveUpDown {
      0% {
          transform: translate(0%, 0%);
      }
      50% {
        transform: translate(0%, -1%);
      }
      80% {
          transform: translate(0%, 0.2%);
      }
      100% {
          transform: translate(0%, 0%);
      }

    } 

      #clothes_pattern, #clothe_bottom, #shirt {
        animation: ClothesMoveUpDown 5s linear infinite;
      }

          @keyframes ClothesMoveUpDown {
      0% {
          transform: translate(0%, 0%);
      }
      50% {
        transform: translate(0%, 1.2%);
      }
      100% {
          transform: translate(0%, 0%);
      }
    } 


  #face_pattern, #clothes_pattern, #line_pattern_bg, #background_pattern  
   {}

      #clothes_pattern, #line_pattern_bg {
    stroke-dasharray: 8;
    stroke-dashoffset: 0;
    animation: symbolsmove 1s ease-in-out 0s forwards infinite;
    }

@keyframes symbolsmove {
    0% {
        stroke-dashoffset: 10;
        stroke: orange;

    }
    50% {
        stroke-dashoffset: 8;
       stroke: 0px;
    }

        100% {
        stroke-dashoffset: 10;
        stroke: orange;
        }
     } 

         #mouth, #hair_shadow {
        animation: mouthanimate 4s ease infinite alternate;
        transform-origin: center;

      }

          @keyframes mouthanimate {  
    0% {
        transform: scaleX(1) translate(0%, -0.6%);
    }
    50% {
        transform: scaleX(1.1) translate(0%, -1%);
    }
    100% {
        transform: scaleX(1) translate(0%, 0%);
    }

 }

  #circle_background{
          animation: circle 7s ease infinite alternate;
          transform-origin: center;
 stroke-dasharray: 8;
    stroke-dashoffset: 0;
        }
        
        @keyframes circle{
      0% {
          transform: scale(1);
      }
      30% {
          transform: scale(0.9);;
      }
      40% {
          transform: scale(1);
      }
  }

       #tears_bg {
        animation: 5s tears_fall
        ease-in-out 0s forwards infinite;
            stroke-width:2px;
            stroke-dasharray: 20;
            stroke-dashoffset: 0;
      }
      @keyframes tears_fall {
     0% {
          transform: translate(0%, 0%);
          stroke-dashoffset: 40;
          stroke: #EB775C;
      }
      50% {
        transform: translate(0%, 2%);
        stroke-dashoffset: 10;
        stroke: 0px;
      }
      100% {
          transform: translate(0%, 0%);
          stroke-dashoffset: 40;
         stroke: #EB775C;
      }
    }


    #cheek_stripes
     {
        animation: 5s
        infinite alternate a;

      }
      @keyframes a {
     0% {
          transform: translate(0%, 0%);
          opacity:0.5;
      }
      100% {
          opacity:1;
          transform: translate(0%, -2%)
      }
    }

      #spiral_hair {
    fill-opacity:0;
    stroke-width:2px;
    stroke-dasharray: 20;
    stroke-dashoffset: 0;
    animation: hair_spiral 1s ease-in-out 0s forwards infinite;
    }

@keyframes hair_spiral {
    0% {
        stroke-dashoffset: 20;
        stroke: #1D181D;

    }
    50% {
        stroke-dashoffset: 10;
       stroke: 0px;
    }

          100% {
        stroke-dashoffset: 20;
        stroke: #1D181D;
        }
     } 

      #face_pattern
 {
    fill-opacity:1;
    stroke-width:1px;
    stroke-dasharray: 20;
    stroke-dashoffset: 0;
    animation: face_pattern_animate 1s ease-in-out 0s forwards infinite;
    }

@keyframes face_pattern_animate {
    0% {
        stroke-dashoffset: 20;
        stroke: #A61800;

    }
    50% {
        stroke-dashoffset: 10;
       stroke: 0px;
    }

        100% {
        stroke-dashoffset: 20;
        stroke: #A61800;
        }
     } 
      
    </style>
  </defs>
  <g id="background_color" data-name="background color">
    <rect class="cls-1" width="400" height="400"/>
  </g>
  <g id="circle_background" data-name="circle background">
    <circle class="cls-2" cx="207.28" cy="195.73" r="180.75"/>
      <g>
      <polyline class="cls-1" points="69.88 41.81 33.28 99.89 69.88 99.89"/>
      <polyline class="cls-1" points="69.88 41.81 106.48 99.89 69.88 99.89"/>
    </g>
  </g>
  <g id="hair_shadow" data-name="hair shadow">
    <path class="cls-3" d="M190.28,108.06l-21.64,45.05s34.51-.22,42.66,2.9c9-20.89,10.41-22.63,10.41-22.63L216,156.13s13.15.7,23,4.24l9.83,3.54,12.06-17.47,22.09-49.63s-37-15.19-61-9.69S166.74,120,166.74,120s-20.07,52.28-27,62.9-66.16,90.88-56.28,99.69c32.37,15.56,45.47,27.3,45.47,27.3l18-30.7s-18.06,40.16-12.61,39.43c29.69,3.31,56.86,14.47,56.86,14.47"/>
    <path class="cls-4" d="M245.15,99.39,265.62,145s-34.49-1.1-42.73,1.8c-8.42-21.11-9.81-22.89-9.81-22.89l5.17,22.89s-13.17.36-23.09,3.64l-9.93,3.29-11.59-17.78L152.83,85.74s37.4-14.22,61.26-8.1,54.29,34.3,54.29,34.3,18.71,52.78,25.33,63.58,63.77,92.56,53.67,101.12c-32.77,14.71-46.16,26.1-46.16,26.1L284,271.59s17,40.61,11.59,39.74c-29.76,2.54-57.22,13-57.22,13"/>
  </g>
  <g id="hair_behind" data-name="hair behind">
    <path class="cls-5" d="M132.13,72.16l-9.94,49s33.41-8.67,42.08-7.65C167.84,91,168.8,89,168.8,89v23.47s12.92-2.55,23.33-1.53l10.4,1,7.4-19.9,9.25-53.53s-39.61-5.65-61.55,5.57-45.4,45.41-45.4,45.41-6.63,55.61-10.71,67.6S59.68,261.44,71.42,267.56c35.2,7.14,50.77,15.31,50.77,15.31l9.94-34.19s-7.66,43.37-2.55,41.33c29.59-4.08,58.67.07,58.67.07"/>
    <path class="cls-5" d="M286.25,72.16l9.93,49s-33.4-8.67-42.07-7.65C250.53,91,249.57,89,249.57,89v23.47s-12.92-2.55-23.32-1.53l-10.41,1-7.4-19.9L199.2,38.53s39.61-5.65,61.54,5.57,45.4,45.41,45.4,45.41,6.64,55.61,10.72,67.6S358.69,261.44,347,267.56c-35.21,7.14-50.78,15.31-50.78,15.31l-9.93-34.19s7.65,43.37,2.55,41.33c-29.59-4.08-58.67.07-58.67.07"/>
  </g>
  <g id="clothe_bottom" data-name="clothe bottom">
    <polygon class="cls-6" points="206.35 294.21 203.65 355.85 206.35 294.21 206.35 294.21"/>
    <polygon class="cls-6" points="147.83 311.49 161.33 290.91 39.8 355.94 25.52 399.82 201.91 399.82 203.65 360.18 206.35 298.54 147.83 311.49"/>
    <polygon class="cls-7" points="389.89 400.19 375.61 356.32 254.08 291.28 267.58 311.86 206.36 298.32 206.35 298.54 206.35 298.54 203.65 360.18 201.89 400.19 389.89 400.19"/>
    <polygon class="cls-7" points="147.83 311.52 161.33 290.91 39.8 356.05 25.52 400 201.91 400 203.65 360.3 206.35 298.56 147.83 311.52"/>
    <polygon class="cls-6" points="206.35 294.21 203.65 355.85 206.35 294.21 206.35 294.21"/>
  </g>
  <g id="shirt">
    <polyline class="cls-8" points="158.81 349.11 156.93 399.82 253.63 399.82 253.63 332.44 156.93 332.44 158.81 349.11"/>
  </g>
  <g id="neck">
    <path class="cls-9" d="M157.63,250.47s11.22,29.93,0,40.81l-25.5,21.77s46.59,44.9,67.68,45.24,11.56,0,11.56,0l-1.44-91.15Z"/>
    <path class="cls-10" d="M258.42,250.47s-11.22,29.93,0,40.81l25.5,21.77s-46.59,44.9-67.68,45.24-11.56,0-11.56,0l1.44-91.15Z"/>
  </g>
  <g id="neck_shadow" data-name="neck shadow">
    <polygon class="cls-5" points="160.78 255.74 162.25 275.6 185.95 299.4 207.14 302.55 211.46 263.95 160.78 255.74"/>
    <polygon class="cls-5" points="257.04 255.74 254.2 273.38 230.5 297.19 206.14 302.55 204.99 261.74 257.04 255.74"/>
  </g>
  <g id="facemain">
    <path class="cls-11" d="M209.93,63.09s-85.46-10.4-81.88,92.15c0,0,4.5,32.77,4.08,30.87,6.46,29.15,2.72,9,7.65,40l14.8,27.55s24,26,30.1,26h22.95"/>
    <path class="cls-12" d="M202.53,63.41s87-10.72,83.41,91.83c0,0,1.11-12.28-6.54,37.2-7.64,38.26-4,22.82-5.2,33.71L259.41,253.7s-24,26-30.1,26h-23"/>
  </g>
  <g id="facesplit">
    <path class="cls-13" d="M202.53,63.41s87-10.72,83.41,91.83c0,0,1.11-12.28-6.54,37.2-1.79,25.55.35,4.86-5.2,33.71L259.41,253.7s-24,26-30.1,26h-23"/>
  </g>
  <g id="face_color" data-name="face color">
    <path class="cls-14" d="M260.35,163.59c1.54.2,28.79-4.44,7.82,30.76s-48.34,12.36-48.34,12.36-8.58,10-14.83,6.39c-3.39-45.62-3.39-44.34-3.39-44.34"/>
    <path class="cls-14" d="M284.49,163.27s29.85-22.59,22.2,21c-18.36,35-11.91,38.65-34.36,42.7"/>
    <path class="cls-14" d="M153.87,163.59c-1.54.2-28.79-4.44-7.82,30.76s48.34,12.36,48.34,12.36,8.58,10,14.84,6.39c3.38-45.62,3.38-44.34,3.38-44.34"/>
    <path class="cls-14" d="M128.45,163.27s-29.85-22.59-22.2,21c18.37,35,11.92,38.65,34.36,42.7"/>
  </g>
  <g id="earsline">
    <polyline points="279.4 192.44 279.3 193.01 275.44 215.26 291.26 201.19 279.14 208.76 293.81 178.11"/>
    <polyline points="135.34 193.06 135.44 193.63 139.29 215.88 123.47 201.81 135.59 209.38 120.92 178.73"/>
  </g>
  <g id="mouth">
    <polyline class="cls-5" points="184.1 248.09 206.1 239.42 227.78 248.09"/>
  </g>
  <g id="front_hair" data-name="front hair">
    <path class="cls-5" d="M151.65,66.2s-20.38,58-21.41,63l45.57-3.59s3.58-27.63,6.58-27.93c1,24.19.35,29,.35,29l31.41-2,6.38-68.71S172.61,44.63,151.65,66.2Z"/>
    <path class="cls-5" d="M256.2,66.2s20.38,58,21.41,63L232,125.65S228.45,98,225.45,97.72c-1,24.19-.34,29-.34,29l-31.42-2-6.37-68.71S235.23,44.63,256.2,66.2Z"/>
  </g>
  <g id="eyebrows">
    <path class="cls-4" d="M220.53,140.44l6.75-8.16s19.25-6.25,34.81,6.12,13,10.88,13,10.88S254.31,138.12,243,138.9Z"/>
    <path class="cls-4" d="M191.41,140.44l-6.75-8.16S165.4,126,149.84,138.4s-13,10.88-13,10.88S157.62,138.12,169,138.9Z"/>
  </g>
  <g id="hair_strands" data-name="hair strands">
    <path class="cls-15" d="M163.56,63.8S142.87,96.4,152,118.41c-.85-24.87,11.57-54.61,11.57-54.61"/>
    <path class="cls-15" d="M165.77,78.29s-12.92,20.36-7.23,34.11c-.52-15.53,7.23-34.11,7.23-34.11"/>
    <path class="cls-15" d="M257.38,115.18s1-24.09-10.8-33.14c8.23,13.18,10.8,33.14,10.8,33.14"/>
  </g>
  <g id="cheek_stripes" data-name="cheek stripes">
    <polygon class="cls-8" points="149.67 178.73 142.59 193.5 152.02 178.73 149.67 178.73"/>
    <polyline class="cls-8" points="156.61 178.73 147.31 197.3 158.66 178.73"/>
    <polyline class="cls-8" points="161.43 178.73 152.98 203.78 164.05 178.73"/>
    <polyline class="cls-8" points="167.05 179.98 160.78 210.2 170.39 179.98"/>
    <polyline class="cls-8" points="172.82 179.98 168.8 213.41 175.73 179.98"/>
  </g>
  <g id="face_pattern" data-name="face pattern">
    <path class="cls-16" d="M206.94,210.74c25.3-2.25,9-23.06,0-32.72C197.94,187.68,181.65,208.49,206.94,210.74Z"/>
    <g>
      <rect class="cls-17" x="101.79" y="72.11" width="38.26" height="1.41"/>
      <rect class="cls-17" x="101.79" y="77.06" width="38.26" height="1.41"/>
      <rect class="cls-17" x="101.79" y="83.07" width="38.26" height="1.41"/>
    </g>
    <g>
      <path class="cls-17" d="M210.3,60.15c-1,2.89-5.09,5.05-10,5.05s-9-2.16-10-5.05h-2.47c0,4.33,5.57,7.84,12.44,7.84s12.44-3.51,12.44-7.84Z"/>
      <path class="cls-17" d="M232.56,59.73c-1,2.89-5.08,5.05-10,5.05s-9-2.16-10-5.05h-2.47c0,4.33,5.57,7.84,12.44,7.84S235,64.06,235,59.73Z"/>
    </g>
    <g>
      <path class="cls-17" d="M252.56,56c.77,2.92-1.73,5.89-6.27,7s-9.59.1-12.24-2.35l-2.29.58c2.56,4,9.81,6,16.18,4.35s9.47-6.18,6.91-10.2Z"/>
      <path class="cls-17" d="M273,50.37c.78,2.92-1.73,5.88-6.26,7s-9.6.1-12.24-2.34l-2.29.58c2.56,4,9.8,6,16.18,4.35s9.46-6.18,6.9-10.2Z"/>
    </g>
    <g>
      <path class="cls-18" d="M319.62,222c-7.09-.34-12.21,5.5-10.72,12.16s5.23,13.09,9.26,13.09c3.85,0,8-5.93,10-13.32C330.15,226.76,322.59,222.15,319.62,222Zm5.58,12.14c-1.39,5.11-4.27,9.21-6.94,9.21s-5.36-4.41-6.4-9,2.51-8.64,7.41-8.4C321.33,226,326.55,229.19,325.2,234.14Z"/>
      <path class="cls-18" d="M342.14,222.57c-7.09-.34-12.21,5.49-10.72,12.15s5.23,13.09,9.26,13.09c3.85,0,8-5.93,10-13.31C352.67,227.33,345.11,222.71,342.14,222.57Zm5.58,12.14c-1.39,5.1-4.27,9.2-6.93,9.2s-5.36-4.4-6.4-9,2.5-8.64,7.41-8.4C343.85,226.56,349.08,229.75,347.72,234.71Z"/>
      <path class="cls-18" d="M345.65,240.16c-1.59,3.74-9.08,6.39-16.33,6.21s-14.15-3.19-15.55-7l-2.73-.07c-.14,5.67,8,10.48,18.19,10.73s18.56-4.13,18.71-9.81Z"/>
      <path class="cls-18" d="M365.12,224c-7.09-.34-12.21,5.49-10.72,12.15s5.23,13.09,9.26,13.09c3.85,0,8-5.93,10-13.32C375.65,228.71,368.09,224.09,365.12,224Zm5.58,12.14c-1.39,5.1-4.27,9.2-6.94,9.2s-5.36-4.4-6.4-9,2.51-8.64,7.41-8.4C366.83,227.94,372.05,231.13,370.7,236.09Z"/>
      <path class="cls-18" d="M368.63,241.54c-1.59,3.74-9.08,6.39-16.33,6.21s-14.16-3.19-15.55-7l-2.73-.07c-.14,5.67,8,10.48,18.19,10.73s18.56-4.14,18.7-9.81Z"/>
      <path class="cls-18" d="M374.23,247.49c-7.25-.18-14.16-3.19-15.56-7l-2.72-.07c-.15,5.68,8,10.48,18.19,10.73.55,0,1.1,0,1.64,0a4.12,4.12,0,0,0,4-4h0A29,29,0,0,1,374.23,247.49Z"/>
      <path class="cls-18" d="M307.26,245.37c7.25.18,14.3-2.48,15.89-6.23l2.72.07c-.14,5.67-8.51,10.06-18.7,9.8-.55,0-1.1,0-1.64-.08a4.12,4.12,0,0,1-3.77-4.24h0A29.44,29.44,0,0,0,307.26,245.37Z"/>
    </g>
  </g>
  <g id="clothes_pattern" data-name="clothes pattern">
    <g>
      <path class="cls-19" d="M99.77,387.86,94,377.16c-2.86-5.31.4-12.22,5.75-12.22h0"/>
      <path class="cls-19" d="M99.77,387.86l5.75-10.7c2.86-5.31-.4-12.22-5.75-12.22h0"/>
    </g>
    <g>
      <path class="cls-12" d="M116.27,388.41l-5.76-10.7c-2.85-5.3.4-12.21,5.76-12.21h0"/>
      <path class="cls-12" d="M116.27,388.41l5.75-10.7c2.86-5.3-.4-12.21-5.75-12.21h0"/>
    </g>
    <g>
      <path class="cls-17" d="M133.52,388.49l-5.76-10.7c-2.85-5.31.4-12.22,5.76-12.22h0"/>
      <path class="cls-17" d="M133.52,388.49l5.75-10.7c2.85-5.31-.4-12.22-5.75-12.22h0"/>
    </g>
    <g>
      <rect class="cls-17" x="302.27" y="374.68" width="47.57" height="1.41"/>
      <rect class="cls-17" x="302.27" y="379.63" width="47.57" height="1.41"/>
      <rect class="cls-17" x="302.27" y="385.65" width="47.57" height="1.41"/>
    </g>
    <g>
      <rect class="cls-19" x="324.78" y="356.35" width="54.28" height="1.41"/>
      <rect class="cls-19" x="324.78" y="361.3" width="54.28" height="1.41"/>
      <rect class="cls-19" x="324.78" y="367.32" width="54.28" height="1.41"/>
    </g>
    <g>
      <rect class="cls-19" x="41.6" y="336.2" width="54.28" height="1.41"/>
      <rect class="cls-19" x="41.6" y="341.15" width="54.28" height="1.41"/>
      <rect class="cls-19" x="41.6" y="347.17" width="54.28" height="1.41"/>
    </g>
    <g>
      <path class="cls-18" d="M23.15,362.54c-7.08.48-11.49,6.87-9.24,13.31s6.7,12.4,10.7,11.94c3.83-.45,7.28-6.81,8.43-14.39C34.16,366.06,26.12,362.34,23.15,362.54Zm7,11.42c-.8,5.23-3.19,9.64-5.83,9.94s-5.84-3.76-7.4-8.25,1.49-8.87,6.39-9.2C25.31,366.31,30.87,368.88,30.1,374Z"/>
      <path class="cls-18" d="M45.59,360.51c-7.08.48-11.49,6.86-9.25,13.31s6.71,12.4,10.71,11.93c3.83-.44,7.28-6.81,8.43-14.38C56.6,364,48.56,360.31,45.59,360.51Zm6.95,11.41c-.8,5.24-3.19,9.64-5.84,9.95s-5.83-3.76-7.39-8.25,1.49-8.87,6.39-9.21C47.75,364.28,53.31,366.84,52.54,371.92Z"/>
      <path class="cls-18" d="M51.1,377.58c-1.14,3.9-8.28,7.4-15.5,8.05s-14.43-1.54-16.26-5.17l-2.71.24c.51,5.65,9.15,9.49,19.3,8.57s18-6.25,17.45-11.9Z"/>
      <path class="cls-18" d="M68.57,359.23c-7.08.48-11.49,6.86-9.24,13.31S66,384.94,70,384.48c3.83-.45,7.29-6.82,8.44-14.39C79.58,362.75,71.54,359,68.57,359.23Zm7,11.42c-.8,5.23-3.18,9.63-5.83,9.94s-5.84-3.76-7.4-8.25,1.49-8.87,6.39-9.2C70.73,363,76.29,365.57,75.52,370.65Z"/>
      <path class="cls-18" d="M74.09,376.3c-1.15,3.9-8.29,7.4-15.51,8.05s-14.43-1.53-16.25-5.17l-2.72.25c.51,5.65,9.16,9.48,19.3,8.56s18-6.25,17.45-11.9Z"/>
      <path class="cls-18" d="M80.34,381.57c-7.22.66-14.44-1.53-16.26-5.17l-2.72.25c.51,5.65,9.16,9.48,19.3,8.56.56,0,1.1-.11,1.64-.19a4.14,4.14,0,0,0,3.49-4.48h0A29.14,29.14,0,0,1,80.34,381.57Z"/>
      <path class="cls-18" d="M13.57,387.17c7.22-.65,13.92-4.11,15.06-8l2.72-.25c.51,5.65-7.3,11-17.45,11.9-.55.05-1.1.08-1.64.11A4.14,4.14,0,0,1,8,387.14H8A29.38,29.38,0,0,0,13.57,387.17Z"/>
    </g>
  </g>
  <g id="tears_bg" data-name="tears bg">
    <g>
      <path class="cls-20" d="M348.15,104.55l5.06,8a6,6,0,0,1-5.06,9.15h0"/>
      <path class="cls-20" d="M348.15,104.55l-5,8a6,6,0,0,0,5,9.15h0"/>
    </g>
    <g>
      <path class="cls-20" d="M85.72,296.19l5,8a6,6,0,0,1-5,9.16h0"/>
      <path class="cls-20" d="M85.72,296.19l-5.06,8a6,6,0,0,0,5.06,9.16h0"/>
    </g>
    <g>
      <path class="cls-20" d="M359.6,119.28l7.55,12A8.93,8.93,0,0,1,359.6,145h0"/>
      <path class="cls-20" d="M359.6,119.28l-7.56,12A8.93,8.93,0,0,0,359.6,145h0"/>
    </g>
  </g>
  <g id="line_pattern_bg" data-name="line pattern bg">
    <g>
      <rect class="cls-21" x="22.56" y="151.91" width="53.07" height="1.96" transform="translate(98.19 305.78) rotate(-180)"/>
      <rect class="cls-21" x="22.56" y="158.78" width="53.07" height="1.96" transform="translate(98.19 319.52) rotate(-180)"/>
      <rect class="cls-21" x="22.56" y="167.13" width="53.07" height="1.96" transform="translate(98.19 336.21) rotate(-180)"/>
    </g>
    <g>
      <rect class="cls-21" x="344.38" y="194.21" width="53.07" height="1.96" transform="translate(741.83 390.38) rotate(-180)"/>
      <rect class="cls-21" x="344.38" y="201.08" width="53.07" height="1.96" transform="translate(741.83 404.12) rotate(-180)"/>
      <rect class="cls-21" x="344.38" y="209.43" width="53.07" height="1.96" transform="translate(741.83 420.81) rotate(-180)"/>
    </g>
    <g>
      <rect class="cls-1" x="5.98" y="208.76" width="53.07" height="1.96" transform="translate(65.03 419.48) rotate(-180)"/>
      <rect class="cls-1" x="5.98" y="215.63" width="53.07" height="1.96" transform="translate(65.03 433.21) rotate(-180)"/>
      <rect class="cls-1" x="5.98" y="223.97" width="53.07" height="1.96" transform="translate(65.03 449.91) rotate(-180)"/>
    </g>
    <g>
      <rect class="cls-1" x="339.45" y="294.54" width="53.07" height="1.96" transform="translate(731.97 591.04) rotate(-180)"/>
      <rect class="cls-1" x="339.45" y="301.41" width="53.07" height="1.96" transform="translate(731.97 604.78) rotate(-180)"/>
      <rect class="cls-1" x="339.45" y="309.76" width="53.07" height="1.96" transform="translate(731.97 621.47) rotate(-180)"/>
    </g>
  </g>
  <g id="eyes">
    <g>
      <path d="M168.8,171.82s-14.36.21-14.73-10.25,14.73-10.24,14.73-10.24"/>
      <path d="M168.8,171.82s13.48.21,13.85-10.25-13.85-10.24-13.85-10.24"/>
    </g>
    <g>
      <path d="M195,163s-20.87-28.47-55.9-2.07C164.29,156.42,171.9,150.28,195,163Z"/>
      <path d="M175.38,174.22s-22.29,1.71-27.29-8.19c.86,4.44-10.25,11.66-10.25,11.66l13.44-4.54S165.41,177.5,175.38,174.22Z"/>
    </g>
    <g>
      <path d="M245.68,170.43s13.69.22,14.05-10.7S245.68,149,245.68,149"/>
      <path d="M245.68,170.43s-12.86.22-13.21-10.7S245.68,149,245.68,149"/>
    </g>
    <g>
      <path d="M219.18,162.32s20.87-28.48,55.89-2.07C249.88,155.73,242.28,149.59,219.18,162.32Z"/>
      <path d="M238.79,173.53s22.3,1.7,27.3-8.19c-.86,4.43,10.24,11.66,10.24,11.66l-13.44-4.54S248.77,176.8,238.79,173.53Z"/>
    </g>
    <path d="M192.13,205.58s10.67,6.41,15,6c-.06,1.46,0,3.06,0,3.06s-11-2.23-15-8.74"/>
    <path d="M222,205.58s-10.67,6.41-15,6c.07,1.46,0,3.06,0,3.06s11-2.23,15-8.74"/>
  </g>
  <g id="background_pattern" data-name="background pattern">
    <g>
      <path class="cls-2" d="M361.18,89.93a8.47,8.47,0,0,0,16.55,0h2a10.32,10.32,0,1,1-20.64,0Z"/>
      <path class="cls-2" d="M342.71,89.38a8.46,8.46,0,0,0,16.54,0h2.05a10.32,10.32,0,0,1-20.64,0Z"/>
    </g>
    <g>
      <path class="cls-2" d="M346.76,74.33a8.47,8.47,0,0,0,16.54,0h2.05a10.32,10.32,0,0,1-20.64,0Z"/>
      <path class="cls-2" d="M328.28,73.78a8.47,8.47,0,0,0,16.55,0h2.05a10.33,10.33,0,0,1-20.65,0Z"/>
    </g>
    <g>
      <path class="cls-2" d="M53,294.72a8.47,8.47,0,0,0,16.55,0h2a10.33,10.33,0,0,1-20.65,0Z"/>
      <path class="cls-2" d="M34.49,294.17a8.47,8.47,0,0,0,16.55,0h2.05a10.32,10.32,0,0,1-20.64,0Z"/>
    </g>
    <g>
      <path class="cls-2" d="M38.54,279.11a8.47,8.47,0,0,0,16.55,0h2a10.33,10.33,0,1,1-20.65,0Z"/>
      <path class="cls-2" d="M20.07,278.56a8.46,8.46,0,0,0,16.54,0h2a10.32,10.32,0,1,1-20.64,0Z"/>
    </g>
  </g>
</svg>
