<svg xmlns="http://www.w3.org/2000/svg" xmlns:xlink="http://www.w3.org/1999/xlink" width="300" height="300" viewBox="0 0 400 400">
  <defs>
    <style>
      .cls-1 {
        fill: #fcc10a;
      }

      .cls-2 {
        fill: #f9ecc7;
      }

      .cls-3 {
        fill: #294b9b;
      }

      .cls-4 {
        fill: #352721;
      }

      .cls-5 {
        fill: #64a5da;
      }

      .cls-6 {
        fill: #3f3f32;
      }

      .cls-7 {
        fill: #936037;
      }

      .cls-8 {
        fill: #f3975b;
      }

      .cls-9 {
        fill: #080405;
      }

      .cls-10 {
        fill: #e08157;
      }

      .cls-11 {
        fill: #eb5a5b;
      }

      .cls-12 {
        fill: #c7775d;
      }

      .cls-13 {
        fill: #77151e;
      }

      .cls-14 {
        fill: #d43616;
      }

      .cls-15 {
        fill: #241d1e;
      }

      .cls-16 {
        fill: #252120;
      }

      .cls-17 {
        fill: #eb775c;
      }

      .cls-18 {
        fill: #e5bdbd;
      }

      .cls-19 {
        fill: #a06554;
      }

      .cls-20 {
        fill: url(#Dégradé_sans_nom_78);
      }

      .cls-21 {
        fill: #27180e;
      }

      .cls-22 {
        fill: #170908;
      }

      .cls-23 {
        fill: url(#Dégradé_sans_nom_78-2);
      }

      .cls-24 {
        fill: #1e0f11;
      }

      .cls-25 {
        fill: #3f2f30;
      }

                  #eyebrows {
        animation: eyebrowsmove 4s linear infinite;
      }

          @keyframes eyebrowsmove {
      0% {
          transform: translate(0%, 0%);
      }
      50% {
        transform: translate(0%, -2%);
      }
      100% {
          transform: translate(0%, 0.2%);
      }
    }

      #face_color, #facemain, #facesplit, #eyes, #hair_strands, #spiral_hair, #earsline, #face_pattern, #front_hair {
        animation: MoveUpDown 4s linear infinite;
      }

          @keyframes MoveUpDown {
      0% {
          transform: translate(0%, 0%);
      }
      50% {
        transform: translate(0%, -1%);
      }
      80% {
          transform: translate(0%, 0.2%);
      }
      100% {
          transform: translate(0%, 0%);
      }

    } 

      #clothes_pattern, #clothe_bottom, #shirt {
        animation: ClothesMoveUpDown 5s linear infinite;
      }

          @keyframes ClothesMoveUpDown {
      0% {
          transform: translate(0%, 0%);
      }
      50% {
        transform: translate(0%, 1.2%);
      }
      100% {
          transform: translate(0%, 0%);
      }
    } 


  #face_pattern, #clothes_pattern, #line_pattern_bg, #background_pattern  
   {}

      #clothes_pattern, #line_pattern_bg {
    stroke-dasharray: 8;
    stroke-dashoffset: 0;
    animation: symbolsmove 1s ease-in-out 0s forwards infinite;
    }

@keyframes symbolsmove {
    0% {
        stroke-dashoffset: 10;
        stroke: red;

    }
    50% {
        stroke-dashoffset: 8;
       stroke: 0px;
    }

        100% {
        stroke-dashoffset: 10;
        stroke: red;
        }
     } 

         #mouth, #hair_shadow {
        animation: mouthanimate 4s ease infinite alternate;
        transform-origin: center;

      }

          @keyframes mouthanimate {  
    0% {
        transform: scaleX(1) translate(0%, -0.6%);
    }
    50% {
        transform: scaleX(1.1) translate(0%, -1%);
    }
    100% {
        transform: scaleX(1) translate(0%, 0%);
    }

 }

  #circle_background{
          animation: circle 7s ease infinite alternate;
          transform-origin: center;
 stroke-dasharray: 8;
    stroke-dashoffset: 0;
        }
        
        @keyframes circle{
      0% {
          transform: scale(1);
      }
      30% {
          transform: scale(0.9);;
      }
      40% {
          transform: scale(1);
      }
  }

      #tears_bg {
        animation: 5s tears_fall
        ease-in-out 0s forwards infinite;
            stroke-width:2px;
            stroke-dasharray: 20;
            stroke-dashoffset: 0;
      }
      @keyframes tears_fall {
     0% {
          transform: translate(0%, 0%);
          stroke-dashoffset: 40;
          stroke: #EB775C;
      }
      50% {
        transform: translate(0%, 2%);
        stroke-dashoffset: 10;
        stroke: 0px;
      }
      100% {
          transform: translate(0%, 0%);
          stroke-dashoffset: 40;
         stroke: #EB775C;
      }
    }


    #cheek_stripes
     {
        animation: 5s
        infinite alternate a;

      }
      @keyframes a {
     0% {
          transform: translate(0%, 0%);
          opacity:0.5;
      }
      100% {
          opacity:1;
          transform: translate(0%, -2%)
      }
    }

      #spiral_hair {
    fill-opacity:0;
    stroke-width:2px;
    stroke-dasharray: 20;
    stroke-dashoffset: 0;
    animation: hair_spiral 1s ease-in-out 0s forwards infinite;
    }

@keyframes hair_spiral {
    0% {
        stroke-dashoffset: 20;
        stroke: #1D181D;

    }
    50% {
        stroke-dashoffset: 10;
       stroke: 0px;
    }

          100% {
        stroke-dashoffset: 20;
        stroke: #1D181D;
        }
     } 

      #face_pattern
 {
    fill-opacity:1;
    stroke-width:2px;
    stroke-dasharray: 20;
    stroke-dashoffset: 0;
    animation: face_pattern_animate 1s ease-in-out 0s forwards infinite;
    }

@keyframes face_pattern_animate {
    0% {
        stroke-dashoffset: 20;
        stroke: #77151E;

    }
    50% {
        stroke-dashoffset: 10;
       stroke: 0px;
    }

        100% {
        stroke-dashoffset: 20;
        stroke: #77151E;
        }
     } 
      

    </style>
    <linearGradient id="Dégradé_sans_nom_78" data-name="Dégradé sans nom 78" x1="159.72" y1="191.88" x2="159.72" y2="138.62" gradientUnits="userSpaceOnUse">
      <stop offset="0" stop-color="#fff" stop-opacity="0"/>
      <stop offset="1" stop-color="#fefefe" stop-opacity="0.5"/>
    </linearGradient>
    <linearGradient id="Dégradé_sans_nom_78-2" x1="-4408" y1="190.44" x2="-4408" y2="137.19" gradientTransform="matrix(-1, 0, 0, 1, -4165.9, 0)" xlink:href="#Dégradé_sans_nom_78"/>
  </defs>
  <g id="background_color" data-name="background color">
    <rect class="cls-1" width="400" height="400"/>
  </g>
  <g id="circle_background" data-name="circle background">
    <circle class="cls-2" cx="197.79" cy="197.83" r="180.75"/>
     <g>
      <polyline class="cls-1" points="359.03 50.48 395.63 108.56 359.03 108.56"/>
      <polyline class="cls-1" points="359.03 50.48 322.43 108.56 359.03 108.56"/>
    </g>
  </g>
  <g id="hair_shadow" data-name="hair shadow">
    <path class="cls-3" d="M240,99.64l20.69,46.08s-34.86-1.12-43.19,1.82C209,126.2,207.6,124.4,207.6,124.4l5.22,23.14s-13.31.36-23.34,3.68l-10,3.32-11.72-18-21-50.73s37.8-14.38,61.92-8.19,54.87,34.67,54.87,34.67,18.91,53.35,25.6,64.26"/>
  </g>
  <g id="hair_behind" data-name="hair behind">
    <path class="cls-4" d="M236.79,47s41.09-1,49.36,10.5,7.2,20.18,12.81,25.16,22.79,10.44,19.33,19.78-3.25,14.1-.9,19.67,13.38,14.33,13.38,14.33-3.56,22.93-2.9,24.71,11.91,20.31,11.91,20.31-5.13,14.63-6.2,17.13S336.35,210,336.35,210s4.76,5.14,3.43,15.07-6.2,14.48-6.2,14.48-6.8,2.69.52,19.33,13.95,14.06,10.49,23.4-5.48,14.3-5.48,14.3,14.85,7.78,15.13,10.36-.28,6,0,10.19-6.33,10.6-6.33,10.6l6.33,9.72-8.42,10.84-98.16-16.48L194.51,73.05l2.42-39"/>
    <path class="cls-4" d="M166.44,45.49s-41.09-1-49.36,10.49-7.2,20.19-12.82,25.17S81.48,91.58,84.94,100.92s3.25,14.11.9,19.67-13.39,14.34-13.39,14.34,3.56,22.93,2.91,24.71-11.91,20.3-11.91,20.3,5.13,14.63,6.19,17.14-2.76,11.36-2.76,11.36-4.76,5.14-3.43,15.08S69.64,238,69.64,238s6.81,2.7-.51,19.33-13.95,14.06-10.49,23.4S64.12,295,64.12,295,49.27,302.81,49,305.38s.29,6,0,10.2,6.34,10.6,6.34,10.6L49,335.9l8.42,10.83,128.29-16.36,15-257.87L196.93,34"/>
    <path class="cls-3" d="M115.53,219.66s-12.21,18.13-8.67,27.94.9,22.14.9,22.14l-13.71,22v21.84L80,333.5l12.25,15.24,149.14-3.47,71.92,11.56,20.41-17.91L314.65,317.1l.1-24.15s-.48-15.63-8.13-15.33-6-16.92-6-16.92c-.1-3.79-3.44-22.33-3.44-22.33l-.43-11.28-10.33-6.66-11.26-16.54L115.53,219.66"/>
  </g>
  <g id="clothe_bottom" data-name="clothe bottom">
    <polygon class="cls-5" points="200.79 296.55 198.06 358.86 200.79 296.55 200.79 296.55"/>
    <polygon class="cls-6" points="386.31 400 371.14 353.16 242.09 283.72 256.43 305.69 191.41 291.23 191.4 291.47 191.4 291.47 188.53 357.29 186.67 400 386.31 400"/>
    <polygon class="cls-6" points="141.65 313.39 155.29 293.22 32.45 356.98 18.02 400 196.31 400 198.06 361.14 200.79 300.7 141.65 313.39"/>
    <polygon class="cls-5" points="200.79 296.55 198.06 358.86 200.79 296.55 200.79 296.55"/>
  </g>
  <g id="neck">
    <path class="cls-7" d="M151.55,252.34s11.34,30.26,0,41.26l-25.78,22s47.1,45.38,68.41,45.72,11.69,0,11.69,0l-1.46-92.13Z"/>
    <path class="cls-8" d="M253.42,252.34s-11.34,30.26,0,41.26l25.78,22S232.1,361,210.79,361.32s-11.69,0-11.69,0l1.46-92.13Z"/>
  </g>
  <g id="neck_shadow" data-name="neck shadow">
    <polygon class="cls-9" points="154.73 257.67 156.22 277.74 180.18 301.81 201.6 304.99 205.96 265.97 154.73 257.67"/>
    <polygon class="cls-9" points="252.03 257.67 249.16 275.5 225.21 299.57 200.58 304.99 199.42 263.73 252.03 257.67"/>
  </g>
  <g id="facemain">
    <path class="cls-10" d="M204.41,62.94S118,52.44,121.65,156.09c0,0,4.55,33.13,4.12,31.21,6.54,29.45-2.43,8.62,2.55,40,15,27.85,17.56,30.36,17.56,30.36s17,24.33,33,24.24c6.18,0,23.2,0,23.2,0"/>
    <path class="cls-11" d="M196.93,63.27s87.92-10.83,84.31,92.82c0,0,1.12-12.42-6.61,37.6-7.72,38.67-4,23.06-5.25,34.07l-15,27.85s-24.23,26.3-30.42,26.3H200.79"/>
  </g>
  <g id="facesplit">
    <path class="cls-12" d="M196.93,63.27s87.92-10.83,84.31,92.82c0,0,1.12-12.42-6.61,37.6-1.81,25.82,4.47,4.47-1.14,33.63C258.54,255.16,258,255.86,258,255.86S242,281.33,224,281.91c-6.19.2-23.21,0-23.21,0"/>
  </g>
  <g id="face_color" data-name="face color">
    <path class="cls-13" d="M278,164.62s28.71-24.66,23.71,19.77c-16.34,36.49-9.61,39.74-32,45.22"/>
    <path class="cls-8" d="M147.75,162.13c-1.55.21-29.1-4.48-7.91,31.09s48.87,12.5,48.87,12.5,8.67,10.09,15,6.45c3.42-46.11,3.42-44.82,3.42-44.82"/>
    <path class="cls-13" d="M124.83,164.89s-27.84-25.62-24.37,19c15.09,37,8.25,40,30.44,46.28"/>
    <path class="cls-8" d="M256.31,161.4c1.55.2,29.1-4.49,7.9,31.09S215.35,205,215.35,205s-8.67,10.1-15,6.46c-3.43-46.11-3.43-44.82-3.43-44.82"/>
  </g>
  <g id="earsline">
    <polyline points="274.67 194.36 274.6 194.95 272.1 217.63 287.18 202.45 275.43 210.84 288.31 179"/>
    <polyline points="128.87 195.53 128.92 196.11 130.64 218.86 116.09 203.18 127.55 211.97 115.76 179.71"/>
  </g>
  <g id="mouth">
    <polyline class="cls-9" points="178.3 249.94 200.54 241.17 222.46 249.94"/>
  </g>
  <g id="front_hair" data-name="front hair">
    <path class="cls-4" d="M208,53.67l-94.13,92.38,14.41-62.84L201,47l27.49,6.66L297.41,104l-5.57,33.4s8.59-4.82-11.07-23.45-56.69-42.16-66.52-46.56S192.13,61.72,170.32,70"/>
  </g>
  <g id="eyebrows">
    <path class="cls-13" d="M215.13,128.63l6.81-8.25s19.47-6.32,35.2,6.19,13.12,11,13.12,11-21-11.29-32.46-10.5Z"/>
    <path class="cls-13" d="M185.69,128.63l-6.82-8.25s-19.47-6.32-35.19,6.19-13.12,11-13.12,11,21-11.29,32.45-10.5Z"/>
  </g>
  <g id="cheek_stripes" data-name="cheek stripes">
    <g>
      <polygon class="cls-14" points="143.5 179.83 136.34 194.76 145.88 179.83 143.5 179.83"/>
      <polyline class="cls-14" points="150.52 179.83 141.11 198.6 152.59 179.83"/>
      <polyline class="cls-14" points="155.39 179.83 146.85 205.15 158.04 179.83"/>
      <polyline class="cls-14" points="161.07 181.1 154.73 211.64 164.45 181.1"/>
      <polyline class="cls-14" points="166.91 181.1 162.84 214.88 169.84 181.1"/>
    </g>
  </g>
  <g id="face_pattern" data-name="face pattern">
   
    <g>
      <path class="cls-15" d="M299.79,229.75a8.47,8.47,0,0,1-16.55,0h-2.05a10.33,10.33,0,0,0,20.65,0Z"/>
      <path class="cls-15" d="M318.26,229.2a8.47,8.47,0,0,1-16.54,0h-2.05a10.32,10.32,0,1,0,20.64,0Z"/>
    </g>
    <g>
      <path class="cls-15" d="M305,220.43a8.47,8.47,0,0,1-16.55,0h-2.05a10.33,10.33,0,1,0,20.65,0Z"/>
      <path class="cls-15" d="M323.51,219.88a8.47,8.47,0,0,1-16.55,0h-2a10.32,10.32,0,0,0,20.64,0Z"/>
    </g>
    <path class="cls-15" d="M337.54,229A8.47,8.47,0,0,1,321,229h-2.05a10.33,10.33,0,0,0,20.65,0Z"/>
    <path class="cls-15" d="M342.78,219.66a8.47,8.47,0,0,1-16.55,0h-2a10.32,10.32,0,1,0,20.64,0Z"/>
    <g>
      <path class="cls-15" d="M90.22,281.23a8.47,8.47,0,0,1-16.55,0h-2a10.33,10.33,0,0,0,20.65,0Z"/>
      <path class="cls-15" d="M108.7,280.68a8.47,8.47,0,0,1-16.55,0H90.1a10.32,10.32,0,1,0,20.64,0Z"/>
    </g>
    <g>
      <path class="cls-15" d="M95.46,271.92a8.47,8.47,0,0,1-16.55,0h-2a10.32,10.32,0,0,0,20.64,0Z"/>
      <path class="cls-15" d="M113.94,271.36a8.47,8.47,0,0,1-16.55,0h-2a10.33,10.33,0,1,0,20.65,0Z"/>
    </g>
    <path class="cls-15" d="M128,280.45a8.47,8.47,0,0,1-16.55,0h-2a10.32,10.32,0,1,0,20.64,0Z"/>
    <path class="cls-15" d="M133.21,271.14a8.47,8.47,0,0,1-16.54,0h-2a10.32,10.32,0,0,0,20.64,0Z"/>
    <g>
      <path class="cls-15" d="M241.53,66.19a8.47,8.47,0,0,1-16.55,0h-2a10.33,10.33,0,0,0,20.65,0Z"/>
      <path class="cls-15" d="M260,65.64a8.47,8.47,0,0,1-16.54,0h-2.05a10.32,10.32,0,0,0,20.64,0Z"/>
    </g>
    <g>
      <path class="cls-15" d="M246.77,56.87a8.47,8.47,0,0,1-16.55,0h-2.05a10.33,10.33,0,0,0,20.65,0Z"/>
      <path class="cls-15" d="M265.25,56.32a8.47,8.47,0,0,1-16.55,0h-2a10.32,10.32,0,1,0,20.64,0Z"/>
    </g>
    <path class="cls-15" d="M279.28,65.41a8.47,8.47,0,0,1-16.55,0h-2.05a10.33,10.33,0,0,0,20.65,0Z"/>
    <path class="cls-15" d="M284.52,56.09a8.47,8.47,0,0,1-16.55,0h-2a10.32,10.32,0,1,0,20.64,0Z"/>
    <g>
      <path class="cls-15" d="M133.63,72.94a8.47,8.47,0,0,1-16.55,0h-2a10.32,10.32,0,1,0,20.64,0Z"/>
      <path class="cls-15" d="M152.1,72.39a8.47,8.47,0,0,1-16.54,0h-2.05a10.32,10.32,0,1,0,20.64,0Z"/>
    </g>
    <g>
      <path class="cls-15" d="M138.87,63.62a8.47,8.47,0,0,1-16.55,0h-2a10.33,10.33,0,1,0,20.65,0Z"/>
      <path class="cls-15" d="M157.35,63.07a8.47,8.47,0,0,1-16.55,0h-2.05a10.32,10.32,0,1,0,20.64,0Z"/>
    </g>
    <path class="cls-15" d="M171.38,72.16a8.47,8.47,0,0,1-16.55,0h-2.05a10.33,10.33,0,0,0,20.65,0Z"/>
    <path class="cls-15" d="M176.62,62.85a8.47,8.47,0,0,1-16.55,0h-2a10.32,10.32,0,0,0,20.64,0Z"/>
    <g>
      <path class="cls-16" d="M311.19,90c-1.91-5.57-8-7.73-12.66-4.53s-8.49,8-7.25,11.15,7,4.36,13.34,3.65C310.75,99.58,312,92.33,311.19,90Zm-7.65,8c-4.36.49-8.4-.47-9.22-2.53s1.75-5.48,5-7.71a5.73,5.73,0,0,1,8.75,3.14C308.64,92.54,307.78,97.55,303.54,98Z"/>
      <path class="cls-16" d="M317.67,107.54c-1.92-5.57-8-7.73-12.66-4.54s-8.49,8-7.26,11.16,7,4.36,13.35,3.65C317.23,117.11,318.47,109.87,317.67,107.54Zm-7.65,8c-4.37.49-8.41-.47-9.23-2.53s1.76-5.48,5-7.71a5.72,5.72,0,0,1,8.75,3.14C315.11,110.08,314.26,115.09,310,115.57Z"/>
      <path class="cls-16" d="M305.18,115.64c-3.37-.07-7.72-5-9.8-10.68s-1.88-11.9.64-14.14l-.79-2.13c-4.41,1.63-5.62,9.38-2.69,17.32s8.88,13,13.3,11.41Z"/>
      <path class="cls-16" d="M323.65,125.68c-1.91-5.58-8-7.73-12.66-4.54s-8.49,8-7.25,11.15,7,4.37,13.35,3.66C323.21,135.25,324.45,128,323.65,125.68Zm-7.64,8c-4.37.49-8.41-.47-9.23-2.53s1.75-5.48,5-7.71a5.72,5.72,0,0,1,8.75,3.13C321.1,128.22,320.24,133.23,316,133.71Z"/>
      <path class="cls-16" d="M310.24,134.15c-3.38-.07-7.72-5-9.8-10.68s-1.89-11.9.63-14.15l-.78-2.12c-4.42,1.63-5.63,9.38-2.7,17.32s8.89,13,13.3,11.41Z"/>
      <path class="cls-16" d="M308.29,139.92c-2.08-5.64-1.88-11.89.64-14.14l-.79-2.12c-4.41,1.63-5.62,9.38-2.69,17.31.16.43.33.86.5,1.27a3.42,3.42,0,0,0,4.34,1.83h0A24.82,24.82,0,0,1,308.29,139.92Z"/>
      <path class="cls-16" d="M289.39,87.64c2.08,5.64,6.3,10.27,9.67,10.34l.79,2.12c-4.42,1.63-10.37-3.48-13.3-11.41-.16-.43-.31-.86-.44-1.29a3.41,3.41,0,0,1,2.11-4.21h0A23.55,23.55,0,0,0,289.39,87.64Z"/>
    </g>
    <g>
      <path class="cls-17" d="M110.81,102.37c1.28,6.22,4.42,11.35,7.61,11.55,3.34.22,6.76-4.87,8.36-10.35S124.43,93,118.54,92.94C116.08,92.9,109.57,96.33,110.81,102.37Zm7.81-6.19a5.73,5.73,0,0,1,5.69,7.35c-1.1,3.79-3.47,7.31-5.77,7.16s-4.38-3.69-5.26-8S116.92,96.16,118.62,96.18Z"/>
      <path class="cls-17" d="M92.13,101.64c1.28,6.23,4.42,11.36,7.61,11.56s6.76-4.87,8.35-10.35-2.34-10.54-8.23-10.63C97.4,92.18,90.89,95.61,92.13,101.64Zm7.81-6.18a5.72,5.72,0,0,1,5.69,7.35c-1.1,3.79-3.47,7.3-5.77,7.16s-4.38-3.69-5.26-8S98.24,95.43,99.94,95.46Z"/>
      <path class="cls-17" d="M96,106.6c1.11,3.19,7.18,5.78,13.19,6s11.89-1.9,13.25-5l2.26.09c-.18,4.7-7.18,8.25-15.63,7.92s-15.15-4.4-15-9.1Z"/>
      <path class="cls-17" d="M73,101.58c1.28,6.22,4.42,11.35,7.61,11.55s6.76-4.87,8.35-10.35-2.34-10.54-8.23-10.63C78.29,92.11,71.79,95.54,73,101.58Zm7.81-6.19a5.73,5.73,0,0,1,5.69,7.35c-1.1,3.79-3.47,7.3-5.78,7.16s-4.37-3.69-5.25-8S79.13,95.36,80.84,95.39Z"/>
      <path class="cls-17" d="M76.86,107.53c1.12,3.19,7.18,5.78,13.19,6s11.9-1.9,13.25-5l2.27.09c-.19,4.7-7.18,8.25-15.63,7.93s-15.16-4.41-15-9.11Z"/>
      <path class="cls-17" d="M72,111.17c6,.23,11.9-1.9,13.25-5l2.27.09c-.19,4.7-7.18,8.25-15.63,7.93-.46,0-.92,0-1.36-.09a3.43,3.43,0,0,1-3.09-3.56h0A24.66,24.66,0,0,0,72,111.17Z"/>
      <path class="cls-17" d="M127.54,112.94c-6-.23-11.71-2.81-12.82-6l-2.27-.08c-.18,4.7,6.52,8.78,15,9.11.46,0,.92,0,1.37,0a3.42,3.42,0,0,0,3.35-3.31h0A24.21,24.21,0,0,1,127.54,112.94Z"/>
    </g>
    <g>
      <rect class="cls-18" x="306.85" y="196.45" width="50.18" height="1.85"/>
      <rect class="cls-18" x="306.85" y="202.95" width="50.18" height="1.85"/>
      <rect class="cls-18" x="306.85" y="210.84" width="50.18" height="1.85"/>
    </g>
    <path class="cls-19" d="M200.07,213.41c33.25-2.89,11.93-29.24,0-41.62C188.14,184.17,166.83,210.52,200.07,213.41Z"/>
    <path class="cls-20" d="M191.11,160.48a31.4,31.4,0,1,1-62.79,0c0-17.34,14.06-21.86,31.4-21.86S191.11,143.14,191.11,160.48Z"/>
    <path class="cls-21" d="M159.72,189.64a31.36,31.36,0,0,1-31.32-29.9c0,.48-.08.93-.08,1.44a31.4,31.4,0,0,0,62.79,0c0-.51-.05-1-.07-1.44A31.38,31.38,0,0,1,159.72,189.64Z"/>
    <path class="cls-22" d="M242.1,188.81a31.36,31.36,0,0,1-31.32-29.9c0,.48-.08.93-.08,1.44a31.4,31.4,0,0,0,62.79,0c0-.51-.05-1-.07-1.44A31.37,31.37,0,0,1,242.1,188.81Z"/>
    <path class="cls-21" d="M129.08,152.73s5.48-16.36,33.35-12.61,28.88,17.69,27.73,24.82c-.75,4.72-.94,5.42-.94,5.42.06,1.89,11.35-16.23-7.28-27.48-19.23-11.61-52.56-4.76-54.8,2s-4.28,7.36-4.28,7.36l4.7,9.09Z"/>
    <polygon class="cls-8" points="127.01 146.05 120.76 153.72 122.28 161.87 128.32 162.43 123.61 154.48 127.01 146.05"/>
    <path class="cls-23" d="M210.7,159.05a31.4,31.4,0,0,0,62.79,0c0-17.34-14.05-21.86-31.39-21.86S210.7,141.71,210.7,159.05Z"/>
    <path class="cls-21" d="M272.73,151.65s-5.28-16.43-33.2-13-29.08,17.35-28,24.5c.7,4.72.88,5.42.88,5.42-.09,1.89-11.16-16.36,7.61-27.39,19.36-11.37,52.61-4.13,54.76,2.67s4.2,7.42,4.2,7.42l-4.81,9Z"/>
    <polygon class="cls-8" points="275.16 144.62 283.13 152.29 281.19 160.43 273.5 160.99 279.49 153.05 275.16 144.62"/>
    <polygon class="cls-24" points="209.16 160.66 192.87 161.01 193.19 157.52 208.63 157.52 209.16 160.66"/>
  </g>
  <g id="clothes_pattern" data-name="clothes pattern">
    <g>
      <path class="cls-17" d="M341.22,371.32c1.28,6.23,4.42,11.36,7.61,11.56,3.34.21,6.76-4.87,8.36-10.35S354.84,362,349,361.9C346.49,361.86,340,365.28,341.22,371.32Zm7.81-6.18a5.72,5.72,0,0,1,5.69,7.35c-1.1,3.79-3.47,7.3-5.77,7.16s-4.38-3.69-5.26-8S347.33,365.11,349,365.14Z"/>
      <path class="cls-17" d="M322.54,370.6c1.28,6.23,4.42,11.36,7.61,11.56s6.76-4.87,8.36-10.35-2.35-10.54-8.24-10.63C327.81,361.14,321.3,364.56,322.54,370.6Zm7.81-6.18a5.72,5.72,0,0,1,5.69,7.35c-1.1,3.79-3.47,7.3-5.77,7.15s-4.38-3.68-5.26-8S328.65,364.39,330.35,364.42Z"/>
      <path class="cls-17" d="M326.44,375.56c1.11,3.18,7.18,5.77,13.19,6s11.89-1.9,13.25-5l2.26.09c-.18,4.7-7.18,8.25-15.63,7.92s-15.15-4.4-15-9.11Z"/>
      <path class="cls-17" d="M303.44,370.53c1.28,6.23,4.42,11.36,7.61,11.56s6.76-4.87,8.35-10.35-2.34-10.54-8.23-10.63C308.7,361.07,302.2,364.49,303.44,370.53Zm7.81-6.18a5.72,5.72,0,0,1,5.69,7.35c-1.1,3.79-3.47,7.3-5.77,7.15s-4.38-3.68-5.26-8S309.54,364.32,311.25,364.35Z"/>
      <path class="cls-17" d="M307.27,376.49c1.12,3.19,7.18,5.77,13.19,6s11.9-1.9,13.25-5l2.27.09c-.19,4.7-7.18,8.25-15.63,7.92s-15.16-4.4-15-9.11Z"/>
      <path class="cls-17" d="M302.38,380.13c6,.23,11.9-1.9,13.25-5l2.27.09c-.18,4.7-7.18,8.25-15.63,7.92-.46,0-.91,0-1.36-.08a3.43,3.43,0,0,1-3.09-3.56h0A24.66,24.66,0,0,0,302.38,380.13Z"/>
      <path class="cls-17" d="M358,381.9c-6-.24-11.71-2.81-12.82-6l-2.27-.08c-.18,4.7,6.52,8.78,15,9.1.46,0,.92,0,1.37,0a3.43,3.43,0,0,0,3.35-3.31h0A24.21,24.21,0,0,1,358,381.9Z"/>
    </g>
    <g>
      <path class="cls-14" d="M310.06,349.27c1.28,6.23,4.42,11.36,7.61,11.56s6.76-4.87,8.36-10.35-2.35-10.54-8.24-10.63C315.33,339.81,308.82,343.24,310.06,349.27Zm7.81-6.18a5.72,5.72,0,0,1,5.69,7.35c-1.1,3.79-3.47,7.3-5.77,7.16s-4.38-3.69-5.26-8S316.17,343.06,317.87,343.09Z"/>
      <path class="cls-14" d="M291.38,348.55c1.28,6.23,4.42,11.36,7.61,11.56s6.76-4.87,8.36-10.35-2.35-10.54-8.24-10.63C296.65,339.09,290.14,342.51,291.38,348.55Zm7.81-6.18a5.72,5.72,0,0,1,5.69,7.35c-1.1,3.79-3.47,7.3-5.77,7.16s-4.38-3.69-5.26-8S297.49,342.34,299.19,342.37Z"/>
      <path class="cls-14" d="M295.28,353.51c1.11,3.19,7.18,5.77,13.19,6s11.89-1.9,13.25-5l2.26.09c-.18,4.7-7.18,8.25-15.63,7.92s-15.15-4.4-15-9.1Z"/>
      <path class="cls-14" d="M272.28,348.48c1.28,6.23,4.42,11.36,7.61,11.56s6.76-4.87,8.35-10.35-2.34-10.54-8.23-10.63C277.54,339,271,342.44,272.28,348.48Zm7.81-6.18a5.72,5.72,0,0,1,5.69,7.35c-1.1,3.79-3.47,7.3-5.77,7.16s-4.38-3.69-5.26-8S278.38,342.27,280.09,342.3Z"/>
      <path class="cls-14" d="M276.11,354.44c1.12,3.19,7.18,5.77,13.19,6s11.9-1.9,13.25-5l2.27.09c-.18,4.7-7.18,8.25-15.63,7.92s-15.16-4.4-15-9.1Z"/>
      <path class="cls-14" d="M271.22,358.08c6,.23,11.9-1.9,13.25-5l2.27.09c-.18,4.7-7.18,8.25-15.63,7.93-.46,0-.91-.05-1.36-.09a3.43,3.43,0,0,1-3.09-3.56h0A24.66,24.66,0,0,0,271.22,358.08Z"/>
      <path class="cls-14" d="M326.79,359.85c-6-.23-11.71-2.81-12.82-6l-2.27-.08c-.18,4.7,6.52,8.78,15,9.1.46,0,.92,0,1.37,0a3.42,3.42,0,0,0,3.35-3.31h0A24.21,24.21,0,0,1,326.79,359.85Z"/>
    </g>
    <g>
      <rect class="cls-18" x="9.79" y="376.5" width="50.18" height="1.85"/>
      <rect class="cls-18" x="9.79" y="382.99" width="50.18" height="1.85"/>
      <rect class="cls-18" x="9.79" y="390.88" width="50.18" height="1.85"/>
    </g>
  </g>
  <g id="spiral_hair" data-name="spiral hair">
    <g>
      <path class="cls-16" d="M340.48,252.18c-1.91-5.57-8-7.73-12.65-4.53s-8.49,8-7.26,11.15,7,4.36,13.35,3.65C340.05,261.76,341.29,254.51,340.48,252.18Zm-7.64,8c-4.37.49-8.41-.47-9.23-2.53s1.75-5.48,5-7.71a5.73,5.73,0,0,1,8.75,3.14C337.93,254.72,337.07,259.73,332.84,260.21Z"/>
      <path class="cls-16" d="M347,269.72c-1.91-5.57-8-7.73-12.66-4.54s-8.49,8.05-7.25,11.16,7,4.36,13.34,3.65C346.52,279.3,347.76,272.05,347,269.72Zm-7.65,8c-4.36.49-8.4-.47-9.22-2.53s1.75-5.48,5-7.71a5.72,5.72,0,0,1,8.75,3.14C344.41,272.26,343.55,277.27,339.31,277.75Z"/>
      <path class="cls-16" d="M334.48,277.82c-3.38-.07-7.72-5-9.8-10.68s-1.89-11.9.63-14.14l-.78-2.13c-4.42,1.63-5.63,9.39-2.7,17.32s8.89,13,13.3,11.41Z"/>
      <path class="cls-16" d="M353,287.86c-1.92-5.57-8-7.73-12.66-4.54s-8.49,8.05-7.26,11.16,7,4.36,13.35,3.65C352.51,297.43,353.75,290.19,353,287.86Zm-7.65,8c-4.37.49-8.41-.47-9.23-2.53s1.76-5.48,5-7.71a5.72,5.72,0,0,1,8.75,3.14C350.39,290.4,349.54,295.41,345.3,295.89Z"/>
      <path class="cls-16" d="M339.53,296.33c-3.37-.07-7.72-5-9.8-10.68s-1.88-11.9.63-14.14l-.78-2.13c-4.41,1.63-5.62,9.39-2.69,17.32s8.88,13,13.3,11.41Z"/>
      <path class="cls-16" d="M337.59,302.1c-2.09-5.64-1.89-11.89.63-14.14l-.78-2.12c-4.42,1.63-5.63,9.38-2.7,17.31.16.43.33.86.51,1.27a3.42,3.42,0,0,0,4.34,1.83h0A23.71,23.71,0,0,1,337.59,302.1Z"/>
      <path class="cls-16" d="M318.68,249.82c2.09,5.64,6.3,10.27,9.68,10.34l.78,2.12c-4.42,1.63-10.37-3.48-13.3-11.41-.16-.43-.3-.86-.44-1.29a3.43,3.43,0,0,1,2.11-4.21h0A25.17,25.17,0,0,0,318.68,249.82Z"/>
    </g>
    <g>
      <path class="cls-16" d="M92.34,134.82c6.32.72,12.16-.68,13.35-3.65s-2.54-7.93-7.25-11.15-10.75-1-12.66,4.53C85,126.89,86.21,134.13,92.34,134.82Zm-3.46-9.34a5.72,5.72,0,0,1,8.75-3.13c3.27,2.22,5.87,5.56,5,7.71s-4.86,3-9.23,2.52S88.33,127.09,88.88,125.48Z"/>
      <path class="cls-16" d="M85.87,152.36c6.31.72,12.16-.68,13.34-3.65s-2.53-7.93-7.25-11.15-10.75-1-12.66,4.53C78.5,144.42,79.74,151.67,85.87,152.36ZM82.41,143a5.72,5.72,0,0,1,8.75-3.13c3.26,2.22,5.87,5.56,5,7.71s-4.86,3-9.22,2.52S81.85,144.63,82.41,143Z"/>
      <path class="cls-16" d="M91.78,150.19c3.38-.07,7.72-5,9.8-10.68s1.89-11.89-.63-14.14l.78-2.12c4.42,1.63,5.63,9.38,2.7,17.31s-8.89,13-13.3,11.41Z"/>
      <path class="cls-16" d="M79.88,170.5c6.31.71,12.16-.68,13.35-3.65S90.69,158.91,86,155.7s-10.74-1-12.66,4.53C72.51,162.56,73.75,169.81,79.88,170.5Zm-3.46-9.34A5.72,5.72,0,0,1,85.17,158c3.26,2.22,5.87,5.56,5,7.71s-4.86,3-9.23,2.52S75.87,162.77,76.42,161.16Z"/>
      <path class="cls-16" d="M86.73,168.7c3.38-.07,7.72-5,9.8-10.68s1.88-11.89-.63-14.14l.78-2.12c4.42,1.63,5.62,9.38,2.69,17.31s-8.88,13-13.3,11.41Z"/>
      <path class="cls-16" d="M88.67,174.48c2.09-5.64,1.89-11.9-.63-14.15l.78-2.12c4.42,1.63,5.63,9.38,2.7,17.32q-.24.65-.51,1.26a3.42,3.42,0,0,1-4.34,1.83h0A24,24,0,0,0,88.67,174.48Z"/>
      <path class="cls-16" d="M107.58,122.19c-2.09,5.65-6.3,10.27-9.68,10.34l-.78,2.13c4.42,1.63,10.37-3.48,13.3-11.42.16-.43.3-.86.44-1.29a3.43,3.43,0,0,0-2.11-4.21h0A25.17,25.17,0,0,1,107.58,122.19Z"/>
    </g>
    <g>
      <path class="cls-16" d="M64.64,268.12c6.31.71,12.16-.68,13.34-3.66s-2.53-7.93-7.25-11.15-10.74-1-12.66,4.53C57.27,260.18,58.51,267.42,64.64,268.12Zm-3.46-9.35a5.72,5.72,0,0,1,8.75-3.13c3.26,2.22,5.87,5.56,5,7.71s-4.87,3-9.23,2.52S60.63,260.39,61.18,258.77Z"/>
      <path class="cls-16" d="M58.16,285.65c6.32.72,12.17-.68,13.35-3.65s-2.54-7.93-7.25-11.15-10.75-1-12.66,4.53C50.8,277.72,52,285,58.16,285.65Zm-3.46-9.34a5.73,5.73,0,0,1,8.76-3.13c3.26,2.22,5.86,5.56,5,7.71s-4.86,3-9.23,2.52S54.15,277.92,54.7,276.31Z"/>
      <path class="cls-16" d="M64.08,283.49c3.38-.08,7.72-5,9.8-10.69s1.89-11.89-.63-14.14l.78-2.12c4.42,1.63,5.62,9.38,2.69,17.31s-8.88,13-13.29,11.42Z"/>
      <path class="cls-16" d="M52.18,303.79c6.31.72,12.16-.68,13.34-3.65S63,292.21,58.27,289s-10.75-1-12.66,4.53C44.81,295.85,46.05,303.1,52.18,303.79Zm-3.46-9.34a5.72,5.72,0,0,1,8.75-3.13c3.26,2.22,5.87,5.56,5,7.71s-4.86,3-9.22,2.52S48.16,296.06,48.72,294.45Z"/>
      <path class="cls-16" d="M59,302c3.37-.07,7.71-5,9.8-10.68s1.88-11.89-.64-14.14l.79-2.12c4.41,1.63,5.62,9.38,2.69,17.31s-8.88,13.05-13.3,11.41Z"/>
      <path class="cls-16" d="M61,307.77c2.09-5.64,1.89-11.89-.63-14.14l.78-2.13c4.42,1.63,5.62,9.39,2.69,17.32-.15.43-.32.85-.5,1.27A3.42,3.42,0,0,1,59,311.91h0A24,24,0,0,0,61,307.77Z"/>
      <path class="cls-16" d="M79.88,255.49c-2.09,5.64-6.3,10.26-9.68,10.33L69.42,268c4.41,1.63,10.37-3.48,13.3-11.41.16-.43.3-.86.44-1.29A3.42,3.42,0,0,0,81.05,251h0A25.4,25.4,0,0,1,79.88,255.49Z"/>
    </g>
    <g>
      <path class="cls-25" d="M334,134.91c-1.91-5.57-8-7.73-12.66-4.53s-8.48,8.05-7.25,11.15,7,4.37,13.35,3.65C333.52,144.49,334.76,137.24,334,134.91Zm-7.64,8c-4.37.49-8.41-.47-9.23-2.52s1.75-5.49,5-7.71a5.73,5.73,0,0,1,8.76,3.13C331.41,137.45,330.55,142.46,326.32,142.94Z"/>
      <path class="cls-25" d="M340.44,152.45c-1.91-5.57-8-7.73-12.66-4.53s-8.49,8-7.25,11.15,7,4.36,13.34,3.65C340,162,341.24,154.78,340.44,152.45Zm-7.65,8c-4.36.49-8.41-.47-9.22-2.53s1.75-5.48,5-7.71a5.73,5.73,0,0,1,8.75,3.14C337.89,155,337,160,332.79,160.48Z"/>
      <path class="cls-25" d="M328,160.55c-3.37-.07-7.71-5-9.8-10.68s-1.88-11.89.64-14.14L318,133.6c-4.41,1.63-5.62,9.39-2.69,17.32s8.88,13,13.3,11.41Z"/>
      <path class="cls-25" d="M346.42,170.59c-1.91-5.57-8-7.73-12.66-4.54s-8.48,8-7.25,11.16,7,4.36,13.35,3.65C346,180.17,347.22,172.92,346.42,170.59Zm-7.64,8c-4.37.49-8.41-.47-9.23-2.53s1.75-5.48,5-7.71a5.74,5.74,0,0,1,8.76,3.14C343.87,173.13,343,178.14,338.78,178.62Z"/>
      <path class="cls-25" d="M333,179.06c-3.38-.07-7.72-5-9.8-10.68s-1.89-11.89.63-14.14l-.78-2.13c-4.42,1.63-5.62,9.39-2.69,17.32s8.88,13,13.3,11.41Z"/>
      <path class="cls-25" d="M331.06,184.84c-2.08-5.65-1.88-11.9.64-14.15l-.79-2.12c-4.41,1.63-5.62,9.38-2.69,17.32.16.43.33.85.5,1.26a3.43,3.43,0,0,0,4.35,1.83h0A24.76,24.76,0,0,1,331.06,184.84Z"/>
      <path class="cls-25" d="M312.16,132.55c2.08,5.65,6.3,10.27,9.67,10.34l.79,2.12c-4.42,1.63-10.37-3.47-13.3-11.41-.16-.43-.31-.86-.44-1.29A3.42,3.42,0,0,1,311,128.1h0A23.55,23.55,0,0,0,312.16,132.55Z"/>
    </g>
    <g>
      <path class="cls-25" d="M73.38,166.19c6.32.71,12.17-.68,13.35-3.66s-2.54-7.93-7.25-11.15-10.75-1-12.66,4.53C66,158.25,67.26,165.49,73.38,166.19Zm-3.46-9.35a5.73,5.73,0,0,1,8.76-3.13c3.26,2.23,5.86,5.56,5,7.71s-4.86,3-9.23,2.53S69.37,158.46,69.92,156.84Z"/>
      <path class="cls-25" d="M66.91,183.72c6.31.72,12.16-.68,13.34-3.65s-2.53-7.93-7.25-11.15-10.75-1-12.66,4.53C59.54,175.79,60.78,183,66.91,183.72Zm-3.46-9.34a5.72,5.72,0,0,1,8.75-3.13c3.26,2.22,5.87,5.56,5,7.71s-4.86,3-9.22,2.52S62.89,176,63.45,174.38Z"/>
      <path class="cls-25" d="M72.83,181.56c3.37-.08,7.71-5,9.8-10.68S84.51,159,82,156.73l.79-2.12c4.41,1.63,5.62,9.38,2.69,17.31S76.59,185,72.17,183.34Z"/>
      <path class="cls-25" d="M60.92,201.86c6.32.72,12.16-.68,13.35-3.65s-2.54-7.93-7.25-11.15-10.75-1-12.66,4.53C53.56,193.93,54.8,201.17,60.92,201.86Zm-3.46-9.34a5.73,5.73,0,0,1,8.75-3.13c3.27,2.22,5.87,5.56,5,7.71s-4.86,3-9.23,2.52S56.91,194.13,57.46,192.52Z"/>
      <path class="cls-25" d="M67.77,200.07c3.38-.08,7.72-5,9.8-10.69s1.89-11.89-.63-14.14l.78-2.12c4.42,1.63,5.62,9.38,2.69,17.31s-8.88,13-13.3,11.42Z"/>
      <path class="cls-25" d="M69.72,205.84c2.08-5.64,1.88-11.89-.64-14.14l.79-2.13c4.41,1.63,5.62,9.39,2.69,17.32-.16.43-.33.85-.5,1.27A3.44,3.44,0,0,1,67.71,210h0A24.86,24.86,0,0,0,69.72,205.84Z"/>
      <path class="cls-25" d="M88.62,153.56c-2.08,5.64-6.3,10.26-9.67,10.33L78.16,166c4.42,1.63,10.37-3.48,13.3-11.41.16-.43.31-.86.44-1.29a3.42,3.42,0,0,0-2.11-4.21h0A23.75,23.75,0,0,1,88.62,153.56Z"/>
    </g>
  </g>
  <g id="tears_bg" data-name="tears bg">
    <g>
      <path class="cls-1" d="M48.69,124.57l-5.06,8a6,6,0,0,0,5.06,9.15h0"/>
      <path class="cls-1" d="M48.69,124.57l5.05,8a6,6,0,0,1-5.05,9.15h0"/>
    </g>
    <g>
      <path class="cls-1" d="M37.24,139.3l-7.55,12A8.93,8.93,0,0,0,37.24,165h0"/>
      <path class="cls-1" d="M37.24,139.3l7.56,12A8.93,8.93,0,0,1,37.24,165h0"/>
    </g>
  </g>
  <g id="line_pattern_bg" data-name="line pattern bg">
    <g>
      <rect class="cls-10" x="7.72" y="240.77" width="42.69" height="1.96"/>
      <rect class="cls-10" x="7.72" y="247.64" width="42.69" height="1.96"/>
      <rect class="cls-10" x="7.72" y="255.98" width="42.69" height="1.96"/>
    </g>
    <g>
      <rect class="cls-1" x="349.17" y="233.16" width="47.18" height="1.96"/>
      <rect class="cls-1" x="349.17" y="240.03" width="47.18" height="1.96"/>
      <rect class="cls-1" x="349.17" y="248.37" width="47.18" height="1.96"/>
    </g>
    <g>
      <rect class="cls-1" x="2.3" y="281.94" width="53.07" height="1.96"/>
      <rect class="cls-1" x="2.3" y="288.8" width="53.07" height="1.96"/>
      <rect class="cls-1" x="2.3" y="297.15" width="53.07" height="1.96"/>
    </g>
  </g>
  <g id="eyes">
    <g>
      <path d="M162.84,170.45s-14.51.21-14.89-10.36,14.89-10.36,14.89-10.36"/>
      <path d="M162.84,170.45s13.62.21,14-10.36-14-10.36-14-10.36"/>
    </g>
    <g>
      <path d="M189.32,161.55s-21.09-28.78-56.5-2.09C158.28,154.89,166,148.68,189.32,161.55Z"/>
      <path d="M169.49,172.88S147,174.6,141.9,164.6c.87,4.48-11.74,7.26-11.74,7.26l15-.06S159.41,176.19,169.49,172.88Z"/>
    </g>
    <g>
      <path d="M240.54,169.05s13.85.22,14.2-10.82-14.2-10.82-14.2-10.82"/>
      <path d="M240.54,169.05s-13,.22-13.34-10.82,13.34-10.82,13.34-10.82"/>
    </g>
    <g>
      <path d="M213.76,160.85s21.09-28.79,56.5-2.1C244.8,154.19,237.11,148,213.76,160.85Z"/>
      <path d="M233.59,172.18s22.53,1.72,27.59-8.28c-.87,4.48,10.35,8.95,10.35,8.95L258,171.09S243.67,175.48,233.59,172.18Z"/>
    </g>
    <path d="M180.44,205.43s14.05,6.72,19.77,6.25c-.09,1.53,0,3.2,0,3.2s-14.47-2.33-19.77-9.14"/>
    <path d="M219.71,205.43s-14.05,6.72-19.77,6.25c.09,1.53,0,3.2,0,3.2s14.47-2.33,19.77-9.14"/>
  </g>
  <g id="background_pattern" data-name="background pattern">
    <g>
      <path class="cls-2" d="M40,110a8.47,8.47,0,0,1-16.55,0h-2a10.32,10.32,0,1,0,20.64,0Z"/>
      <path class="cls-2" d="M58.49,109.4a8.47,8.47,0,0,1-16.55,0h-2a10.33,10.33,0,0,0,20.65,0Z"/>
    </g>
    <g>
      <path class="cls-2" d="M54.44,94.35a8.47,8.47,0,0,1-16.55,0h-2a10.33,10.33,0,0,0,20.65,0Z"/>
      <path class="cls-2" d="M72.92,93.8a8.47,8.47,0,0,1-16.55,0h-2A10.32,10.32,0,1,0,75,93.8Z"/>
    </g>
    <g>
      <path class="cls-2" d="M373.29,275.25a8.47,8.47,0,0,1-16.55,0h-2.05a10.33,10.33,0,0,0,20.65,0Z"/>
      <path class="cls-2" d="M391.77,274.7a8.47,8.47,0,0,1-16.55,0h-2.05a10.33,10.33,0,0,0,20.65,0Z"/>
    </g>
  </g>
</svg>
